# Blender v2.79 (sub 0) OBJ File: 'Prop_Bottle_2.blend'
# www.blender.org
mtllib Prop_Bottle_2.mtl
o Prop_Bottle_2_Cube.024
v -0.038843 -0.002409 0.067922
v -0.067922 -0.002409 0.038843
v -0.067922 -0.002409 -0.038843
v -0.038843 -0.002409 -0.067922
v 0.067922 -0.002409 0.038843
v 0.038843 -0.002409 0.067922
v 0.038843 -0.002409 -0.067922
v 0.067922 -0.002409 -0.038843
v -0.042687 0.250803 0.077060
v -0.077060 0.250803 0.042687
v -0.042687 0.250803 -0.077060
v -0.077060 0.250803 -0.042687
v 0.042687 0.250803 -0.077060
v 0.077060 0.250803 -0.042687
v 0.042687 0.250803 0.077060
v 0.077060 0.250803 0.042687
v -0.064217 0.284671 0.093297
v -0.093297 0.284671 0.064217
v -0.093297 0.284671 -0.064217
v -0.064217 0.284671 -0.093297
v 0.064217 0.284671 -0.093297
v 0.093297 0.284671 -0.064217
v 0.093297 0.284671 0.064217
v 0.064217 0.284671 0.093297
v -0.019776 0.351432 0.048855
v -0.048855 0.351432 0.019776
v -0.048855 0.351432 -0.019776
v -0.019776 0.351432 -0.048855
v 0.019776 0.351432 -0.048855
v 0.048855 0.351432 -0.019776
v 0.048855 0.351432 0.019776
v 0.019776 0.351432 0.048855
v -0.039356 0.383867 0.062643
v -0.062643 0.383867 0.039356
v -0.062643 0.383867 -0.039356
v -0.039356 0.383867 -0.062643
v 0.039356 0.383867 -0.062643
v 0.062643 0.383867 -0.039356
v 0.062643 0.383867 0.039356
v 0.039356 0.383867 0.062643
v -0.051527 0.386346 0.074814
v -0.074814 0.386346 0.051527
v -0.074814 0.386346 -0.051527
v -0.051527 0.386346 -0.074814
v 0.051527 0.386346 -0.074814
v 0.074814 0.386346 -0.051527
v 0.074814 0.386346 0.051527
v 0.051527 0.386346 0.074814
v -0.059291 0.427004 0.036010
v -0.036010 0.427004 0.059291
v -0.036010 0.427004 -0.059291
v -0.059291 0.427004 -0.036010
v 0.036010 0.427004 -0.059291
v 0.059291 0.427004 -0.036010
v 0.059291 0.427004 0.036010
v 0.036010 0.427004 0.059291
v 0.085601 0.223448 -0.056522
v 0.056522 0.223448 -0.085601
v 0.085601 0.223448 0.056522
v 0.056522 0.223448 0.085601
v -0.085601 0.223448 0.056522
v -0.056522 0.223448 0.085601
v -0.085601 0.223448 -0.056522
v -0.056522 0.223448 -0.085601
v -0.048189 0.406468 -0.071475
v -0.071475 0.406468 -0.048189
v 0.048189 0.406468 -0.071475
v 0.071475 0.406468 -0.048189
v 0.071475 0.406468 0.048189
v 0.048189 0.406468 0.071475
v -0.071475 0.406468 0.048189
v -0.048189 0.406468 0.071475
v -0.074814 0.426591 -0.051527
v -0.051527 0.426591 -0.074814
v 0.051527 0.426591 -0.074814
v 0.074814 0.426591 -0.051527
v 0.074814 0.426591 0.051527
v 0.051527 0.426591 0.074814
v -0.051527 0.426591 0.074814
v -0.074814 0.426591 0.051527
v -0.036010 0.463474 -0.059291
v -0.059291 0.463474 -0.036010
v 0.059291 0.463474 -0.036010
v 0.036010 0.463474 -0.059291
v 0.036010 0.463474 0.059291
v 0.059291 0.463474 0.036010
v -0.059291 0.463474 0.036010
v -0.036010 0.463474 0.059291
v -0.120665 0.110417 0.153934
v -0.109258 0.158232 0.142527
v -0.142527 0.158233 0.109258
v -0.153934 0.110417 0.120665
v -0.153934 0.110417 -0.120665
v -0.142527 0.158233 -0.109258
v -0.109258 0.158233 -0.142527
v -0.120665 0.110417 -0.153934
v 0.153934 0.110417 0.120665
v 0.142527 0.158233 0.109258
v 0.109258 0.158233 0.142527
v 0.120665 0.110417 0.153934
v 0.120665 0.110417 -0.153934
v 0.109258 0.158233 -0.142527
v 0.142527 0.158233 -0.109258
v 0.153934 0.110417 -0.120665
vt 0.144531 0.982422
vt 0.144531 0.982422
vt 0.144531 0.982422
vt 0.144531 0.982422
vt 0.144531 0.982422
vt 0.144531 0.982422
vt 0.144531 0.982422
vt 0.144531 0.982422
vt 0.144531 0.982422
vt 0.144531 0.982422
vt 0.144531 0.982422
vt 0.144531 0.982422
vt 0.144531 0.982422
vt 0.144531 0.982422
vt 0.144531 0.982422
vt 0.144531 0.982422
vt 0.144531 0.982422
vt 0.144531 0.982422
vt 0.144531 0.982422
vt 0.144531 0.982422
vt 0.144531 0.982422
vt 0.144531 0.982422
vt 0.144531 0.982422
vt 0.144531 0.982422
vt 0.144531 0.982422
vt 0.144531 0.982422
vt 0.144531 0.982422
vt 0.144531 0.982422
vt 0.144531 0.982422
vt 0.144531 0.982422
vt 0.144531 0.982422
vt 0.144531 0.982422
vt 0.144531 0.982422
vt 0.144531 0.982422
vt 0.046875 0.954101
vt 0.046875 0.954101
vt 0.046875 0.954101
vt 0.046875 0.954101
vt 0.144531 0.982422
vt 0.144531 0.982422
vt 0.144531 0.982422
vt 0.144531 0.982422
vt 0.144531 0.982422
vt 0.144531 0.982422
vt 0.144531 0.982422
vt 0.144531 0.982422
vt 0.144531 0.982422
vt 0.144531 0.982422
vt 0.144531 0.982422
vt 0.144531 0.982422
vt 0.144531 0.982422
vt 0.144531 0.982422
vt 0.144531 0.982422
vt 0.144531 0.982422
vt 0.144531 0.982422
vt 0.144531 0.982422
vt 0.144531 0.982422
vt 0.144531 0.982422
vt 0.144531 0.982422
vt 0.144531 0.982422
vt 0.144531 0.982422
vt 0.144531 0.982422
vt 0.144531 0.982422
vt 0.144531 0.982422
vt 0.144531 0.982422
vt 0.144531 0.982422
vt 0.144531 0.982422
vt 0.144531 0.982422
vt 0.144531 0.982422
vt 0.144531 0.982422
vt 0.144531 0.982422
vt 0.144531 0.982422
vt 0.144531 0.982422
vt 0.144531 0.982422
vt 0.144531 0.982422
vt 0.046875 0.954101
vt 0.046875 0.954101
vt 0.046875 0.954101
vt 0.046875 0.954101
vt 0.046875 0.954101
vt 0.046875 0.954101
vt 0.046875 0.954101
vt 0.046875 0.954101
vt 0.144531 0.982422
vt 0.144531 0.982422
vt 0.046875 0.954101
vt 0.046875 0.954101
vt 0.144531 0.982422
vt 0.144531 0.982422
vt 0.144531 0.982422
vt 0.144531 0.982422
vt 0.144531 0.982422
vt 0.144531 0.982422
vt 0.144531 0.982422
vt 0.144531 0.982422
vt 0.144531 0.982422
vt 0.144531 0.982422
vt 0.144531 0.982422
vt 0.144531 0.982422
vt 0.144531 0.982422
vt 0.046875 0.954101
vt 0.046875 0.954101
vt 0.144531 0.982422
vt 0.144531 0.982422
vt 0.144531 0.982422
vt 0.144531 0.982422
vt 0.144531 0.982422
vt 0.144531 0.982422
vt 0.144531 0.982422
vt 0.144531 0.982422
vt 0.144531 0.982422
vt 0.144531 0.982422
vn 0.4872 -0.7247 0.4872
vn 0.0000 -0.6063 0.7953
vn 0.0000 0.1637 0.9865
vn -0.7953 -0.6063 0.0000
vn -0.7534 0.6576 -0.0000
vn 0.0000 -0.4323 0.9017
vn -0.9017 -0.4323 0.0000
vn 0.0000 0.5541 0.8324
vn 0.0000 0.2980 -0.9546
vn 0.0000 -0.9799 0.1995
vn -1.0000 0.0000 0.0000
vn 0.0000 0.2980 0.9546
vn 0.4551 0.7653 -0.4551
vn 0.9017 -0.4323 0.0000
vn 0.0000 -0.4323 -0.9017
vn 0.9203 -0.3912 0.0000
vn 0.8324 0.5541 0.0000
vn 0.0000 0.1637 -0.9865
vn -0.8324 0.5541 0.0000
vn 0.0000 0.5541 -0.8324
vn 0.0000 -0.3912 0.9203
vn 0.0000 -0.3912 -0.9203
vn 0.0000 -0.1637 -0.9865
vn -0.9203 -0.3912 0.0000
vn 0.1995 -0.9799 0.0000
vn 0.0266 0.9996 0.0000
vn -0.1995 -0.9799 0.0000
vn 0.0000 1.0000 0.0000
vn 0.0000 0.0000 -1.0000
vn 0.9865 -0.1637 0.0000
vn 1.0000 0.0000 0.0000
vn 0.9546 0.2980 0.0000
vn -0.9546 0.2980 0.0000
vn -0.4551 0.7653 -0.4551
vn 0.0000 -1.0000 -0.0000
vn 0.4551 0.7653 0.4551
vn -0.9865 -0.1637 0.0000
vn 0.0000 -0.9799 -0.1995
vn -0.0000 0.6576 -0.7534
vn -0.9865 0.1637 0.0000
vn -0.0266 0.9996 0.0000
vn 0.9865 0.1637 0.0000
vn 0.0000 0.0000 1.0000
vn 0.0000 0.9996 -0.0266
vn 0.0000 0.9996 0.0266
vn -0.4551 0.7653 0.4551
vn -0.0000 -0.6063 -0.7953
vn 0.7953 -0.6063 -0.0000
vn 0.6121 0.5007 -0.6121
vn 0.7534 0.6576 0.0000
vn -0.6121 0.5007 0.6121
vn -0.4872 -0.7247 -0.4872
vn -0.5553 -0.6192 0.5553
vn -0.5553 -0.6192 -0.5553
vn 0.5553 -0.6192 0.5553
vn 0.5553 -0.6192 -0.5553
vn 0.5149 0.6855 0.5149
vn -0.5149 0.6855 0.5149
vn -0.5149 0.6855 -0.5149
vn 0.5149 0.6855 -0.5149
vn 0.5718 -0.5883 -0.5718
vn 0.5718 -0.5883 0.5718
vn -0.5718 -0.5883 0.5718
vn -0.5718 -0.5883 -0.5718
vn 0.1008 -0.9898 0.1008
vn -0.1008 -0.9898 0.1008
vn -0.1008 -0.9898 -0.1008
vn 0.1008 -0.9898 -0.1008
vn -0.6884 -0.2284 -0.6884
vn 0.6884 0.2284 -0.6884
vn 0.6884 0.2284 0.6884
vn -0.6884 -0.2284 0.6884
vn -0.7071 0.0000 -0.7071
vn -0.7071 -0.0000 0.7071
vn 0.4872 -0.7247 -0.4872
vn 0.6121 0.5007 0.6121
vn -0.0000 0.6576 0.7534
vn -0.6121 0.5007 -0.6121
vn -0.6884 0.2284 -0.6884
vn 0.6884 -0.2284 -0.6884
vn 0.6884 -0.2284 0.6884
vn -0.6884 0.2284 0.6884
vn -0.0133 0.9998 -0.0133
vn 0.0133 0.9998 -0.0133
vn 0.0133 0.9998 0.0133
vn -0.0133 0.9998 0.0133
vn 0.7071 0.0000 0.7071
vn 0.7071 -0.0000 -0.7071
vn 0.0000 -0.1637 0.9865
vn -0.6700 0.3197 0.6700
vn -0.6700 0.3197 -0.6700
vn 0.6700 0.3197 -0.6700
vn 0.6700 0.3197 0.6700
vn -0.9727 0.2320 0.0000
vn -0.0000 0.2320 0.9727
vn 0.9727 0.2320 0.0000
vn -0.0000 0.2320 -0.9727
vn -0.4872 -0.7247 0.4872
usemtl Atlas
s off
f 100/1/1 6/2/1 5/3/1 97/4/1
f 6/2/2 100/1/2 89/5/2 1/6/2
f 41/7/3 48/8/3 70/9/3 72/10/3
f 2/11/4 92/12/4 93/13/4 3/14/4
f 91/15/5 61/16/5 63/17/5 94/18/5
f 9/19/6 15/20/6 24/21/6 17/22/6
f 10/23/7 18/24/7 19/25/7 12/26/7
f 17/22/8 24/21/8 32/27/8 25/28/8
f 58/29/9 64/30/9 11/31/9 13/32/9
f 33/33/10 40/34/10 48/8/10 41/7/10
f 49/35/11 87/36/11 82/37/11 52/38/11
f 62/39/12 60/40/12 15/20/12 9/19/12
f 102/41/13 58/29/13 57/42/13 103/43/13
f 16/44/14 14/45/14 22/46/14 23/47/14
f 11/31/15 20/48/15 21/49/15 13/32/15
f 30/50/16 38/51/16 39/52/16 31/53/16
f 22/46/17 30/50/17 31/53/17 23/47/17
f 45/54/18 44/55/18 65/56/18 67/57/18
f 18/24/19 26/58/19 27/59/19 19/25/19
f 20/48/20 28/60/20 29/61/20 21/49/20
f 25/28/21 32/27/21 40/34/21 33/33/21
f 28/60/22 36/62/22 37/63/22 29/61/22
f 65/56/23 74/64/23 75/65/23 67/57/23
f 26/58/24 34/66/24 35/67/24 27/59/24
f 38/51/25 46/68/25 47/69/25 39/52/25
f 54/70/26 55/71/26 77/72/26 76/73/26
f 34/66/27 42/74/27 43/75/27 35/67/27
f 83/76/28 84/77/28 81/78/28 82/37/28 87/36/28 88/79/28 85/80/28 86/81/28
f 53/82/29 51/83/29 81/78/29 84/77/29
f 68/84/30 76/73/30 77/72/30 69/85/30
f 55/86/31 54/87/31 83/76/31 86/81/31
f 59/88/32 57/42/32 14/45/32 16/44/32
f 63/17/33 61/16/33 10/23/33 12/26/33
f 64/30/34 95/89/34 94/18/34 63/17/34
f 4/90/35 7/91/35 8/92/35 5/3/35 6/2/35 1/6/35 2/11/35 3/14/35
f 60/40/36 99/93/36 98/94/36 59/88/36
f 66/95/37 71/96/37 80/97/37 73/98/37
f 36/62/38 44/55/38 45/54/38 37/63/38
f 95/89/39 64/30/39 58/29/39 102/41/39
f 43/75/40 42/74/40 71/96/40 66/95/40
f 49/99/41 52/100/41 73/98/41 80/97/41
f 47/69/42 46/68/42 68/84/42 69/85/42
f 50/101/43 56/102/43 85/80/43 88/79/43
f 51/103/44 53/104/44 75/65/44 74/64/44
f 50/105/45 79/106/45 78/107/45 56/108/45
f 90/109/46 62/39/46 61/16/46 91/15/46
f 4/90/47 96/110/47 101/111/47 7/91/47
f 8/92/48 104/112/48 97/4/48 5/3/48
f 58/29/49 13/32/49 14/45/49 57/42/49
f 98/94/50 103/43/50 57/42/50 59/88/50
f 62/39/51 9/19/51 10/23/51 61/16/51
f 96/110/52 4/90/52 3/14/52 93/13/52
f 9/19/53 17/22/53 18/24/53 10/23/53
f 20/48/54 11/31/54 12/26/54 19/25/54
f 16/44/55 23/47/55 24/21/55 15/20/55
f 22/46/56 14/45/56 13/32/56 21/49/56
f 23/47/57 31/53/57 32/27/57 24/21/57
f 26/58/58 18/24/58 17/22/58 25/28/58
f 19/25/59 27/59/59 28/60/59 20/48/59
f 30/50/60 22/46/60 21/49/60 29/61/60
f 29/61/61 37/63/61 38/51/61 30/50/61
f 40/34/62 32/27/62 31/53/62 39/52/62
f 25/28/63 33/33/63 34/66/63 26/58/63
f 36/62/64 28/60/64 27/59/64 35/67/64
f 39/52/65 47/69/65 48/8/65 40/34/65
f 42/74/66 34/66/66 33/33/66 41/7/66
f 35/67/67 43/75/67 44/55/67 36/62/67
f 46/68/68 38/51/68 37/63/68 45/54/68
f 66/95/69 73/98/69 74/64/69 65/56/69
f 68/84/70 46/68/70 45/54/70 67/57/70
f 70/9/71 48/8/71 47/69/71 69/85/71
f 72/10/72 79/106/72 80/97/72 71/96/72
f 52/38/73 82/37/73 81/78/73 51/83/73
f 50/101/74 88/79/74 87/36/74 49/35/74
f 104/112/75 8/92/75 7/91/75 101/111/75
f 15/20/76 60/40/76 59/88/76 16/44/76
f 90/109/77 99/93/77 60/40/77 62/39/77
f 11/31/78 64/30/78 63/17/78 12/26/78
f 43/75/79 66/95/79 65/56/79 44/55/79
f 76/73/80 68/84/80 67/57/80 75/65/80
f 78/107/81 70/9/81 69/85/81 77/72/81
f 41/7/82 72/10/82 71/96/82 42/74/82
f 51/103/83 74/64/83 73/98/83 52/100/83
f 54/70/84 76/73/84 75/65/84 53/104/84
f 56/108/85 78/107/85 77/72/85 55/71/85
f 49/99/86 80/97/86 79/106/86 50/105/86
f 85/80/87 56/102/87 55/86/87 86/81/87
f 53/82/88 84/77/88 83/76/88 54/87/88
f 72/10/89 70/9/89 78/107/89 79/106/89
f 90/109/90 91/15/90 92/12/90 89/5/90
f 94/18/91 95/89/91 96/110/91 93/13/91
f 102/41/92 103/43/92 104/112/92 101/111/92
f 98/94/93 99/93/93 100/1/93 97/4/93
f 91/15/94 94/18/94 93/13/94 92/12/94
f 99/93/95 90/109/95 89/5/95 100/1/95
f 103/43/96 98/94/96 97/4/96 104/112/96
f 95/89/97 102/41/97 101/111/97 96/110/97
f 1/6/98 89/5/98 92/12/98 2/11/98
