# Blender v2.79 (sub 0) OBJ File: 'UI_Gem_Green.blend'
# www.blender.org
mtllib UI_Gem_Green.mtl
o UI_Gem_Green_Cube.281
v 0.000000 -0.364698 -0.000000
v 0.047068 0.200995 0.147360
v 0.057955 0.177470 0.175040
v 0.147360 0.200995 0.047068
v 0.175040 0.177470 0.057955
v 0.175040 0.177470 -0.057955
v 0.147360 0.200995 -0.047068
v 0.047068 0.200995 -0.147360
v 0.057955 0.177470 -0.175040
v -0.047068 0.200995 -0.147360
v -0.057955 0.177470 -0.175040
v -0.147360 0.200995 -0.047068
v -0.175040 0.177470 -0.057955
v -0.175040 0.177470 0.057955
v -0.147360 0.200995 0.047068
v -0.047068 0.200995 0.147360
v -0.057955 0.177470 0.175040
v -0.279636 0.044205 0.092587
v -0.280086 0.018023 0.092736
v -0.092736 0.018023 0.280086
v -0.092587 0.044205 0.279636
v -0.092587 0.044205 -0.279636
v -0.092736 0.018023 -0.280086
v -0.280086 0.018023 -0.092736
v -0.279636 0.044205 -0.092587
v 0.092587 0.044205 0.279636
v 0.092736 0.018023 0.280086
v 0.280086 0.018023 0.092736
v 0.279636 0.044205 0.092587
v 0.279636 0.044205 -0.092587
v 0.280086 0.018023 -0.092736
v 0.092736 0.018023 -0.280086
v 0.092587 0.044205 -0.279636
vt 0.328125 0.987305
vt 0.328125 0.987305
vt 0.328125 0.987305
vt 0.328125 0.987305
vt 0.328125 0.987305
vt 0.328125 0.987305
vt 0.328125 0.987305
vt 0.328125 0.987305
vt 0.328125 0.987305
vt 0.328125 0.987305
vt 0.328125 0.987305
vt 0.328125 0.987305
vt 0.328125 0.987305
vt 0.328125 0.987305
vt 0.328125 0.987305
vt 0.328125 0.987305
vt 0.328125 0.987305
vt 0.328125 0.987305
vt 0.328125 0.987305
vt 0.328125 0.987305
vt 0.328125 0.987305
vt 0.328125 0.987305
vt 0.328125 0.987305
vt 0.328125 0.987305
vt 0.328125 0.987305
vt 0.328125 0.987305
vt 0.328125 0.987305
vt 0.328125 0.987305
vt 0.328125 0.987305
vt 0.328125 0.987305
vt 0.328125 0.987305
vt 0.328125 0.987305
vt 0.328125 0.987305
vn 0.0000 0.6174 0.7866
vn 0.0000 0.6814 0.7319
vn 0.5687 0.5942 -0.5687
vn 0.5289 0.6637 -0.5289
vn 0.7866 0.6174 0.0000
vn 0.7319 0.6814 0.0000
vn 0.0000 -0.5906 -0.8070
vn -0.5823 -0.5673 0.5823
vn 0.5823 -0.5673 0.5823
vn -0.7866 0.6174 -0.0000
vn -0.7319 0.6814 -0.0000
vn 0.0000 0.6174 -0.7866
vn 0.0000 0.6814 -0.7319
vn 0.5687 0.5942 0.5687
vn 0.5289 0.6637 0.5289
vn 0.8070 -0.5906 0.0000
vn 0.0000 1.0000 0.0000
vn -0.5687 0.5942 -0.5687
vn -0.5289 0.6637 -0.5289
vn 0.0000 -0.5906 0.8070
vn 0.5823 -0.5673 -0.5823
vn -0.8070 -0.5906 0.0000
vn 0.6476 0.7620 0.0000
vn 0.0000 0.7620 0.6476
vn -0.6476 0.7620 0.0000
vn -0.4619 0.7572 0.4619
vn -0.5289 0.6637 0.5289
vn 0.4619 0.7572 0.4619
vn -0.4619 0.7572 -0.4619
vn 0.4619 0.7572 -0.4619
vn 0.0000 0.7620 -0.6476
vn -0.5823 -0.5673 -0.5823
vn -0.7070 0.0162 0.7070
vn -0.7070 0.0162 -0.7070
vn 0.7070 0.0162 -0.7070
vn 0.7070 0.0162 0.7070
vn -0.9999 0.0172 -0.0000
vn 0.0000 0.0172 0.9999
vn 0.9999 0.0172 -0.0000
vn 0.0000 0.0172 -0.9999
vn -0.5687 0.5942 0.5687
usemtl Atlas
s 1
f 21/1/1 26/2/1 3/3/2 17/4/2
f 30/5/3 33/6/3 9/7/4 6/8/4
f 29/9/5 30/5/5 6/8/6 5/10/6
f 1/11/7 23/12/7 32/13/7
f 1/11/8 20/14/8 19/15/8
f 27/16/9 1/11/9 28/17/9
f 25/18/10 18/19/10 14/20/11 13/21/11
f 33/6/12 22/22/12 11/23/13 9/7/13
f 26/2/14 29/9/14 5/10/15 3/3/15
f 1/11/16 31/24/16 28/17/16
f 7/25/17 8/26/17 10/27/17 12/28/17 15/29/17 16/30/17 2/31/17 4/32/17
f 22/22/18 25/18/18 13/21/19 11/23/19
f 1/11/20 27/16/20 20/14/20
f 31/24/21 1/11/21 32/13/21
f 1/11/22 19/15/22 24/33/22
f 5/10/6 6/8/6 7/25/23 4/32/23
f 2/31/24 16/30/24 17/4/2 3/3/2
f 15/29/25 12/28/25 13/21/11 14/20/11
f 16/30/26 15/29/26 14/20/27 17/4/27
f 4/32/28 2/31/28 3/3/15 5/10/15
f 12/28/29 10/27/29 11/23/19 13/21/19
f 8/26/30 7/25/30 6/8/4 9/7/4
f 9/7/13 11/23/13 10/27/31 8/26/31
f 23/12/32 1/11/32 24/33/32
f 21/1/33 18/19/33 19/15/33 20/14/33
f 25/18/34 22/22/34 23/12/34 24/33/34
f 33/6/35 30/5/35 31/24/35 32/13/35
f 29/9/36 26/2/36 27/16/36 28/17/36
f 18/19/37 25/18/37 24/33/37 19/15/37
f 26/2/38 21/1/38 20/14/38 27/16/38
f 28/17/39 31/24/39 30/5/39 29/9/39
f 32/13/40 23/12/40 22/22/40 33/6/40
f 18/19/41 21/1/41 17/4/27 14/20/27
