# Blender v2.79 (sub 0) OBJ File: 'UI_Gem_Blue.blend'
# www.blender.org
mtllib UI_Gem_Blue.mtl
o UI_Gem_Blue_Cube.280
v -0.080464 -0.394586 0.051595
v -0.080464 -0.257283 0.130382
v -0.184501 -0.257283 0.051595
v -0.080464 0.257283 0.130382
v -0.080464 0.394586 0.051595
v -0.184501 0.257283 0.051595
v -0.080464 -0.394586 -0.051595
v -0.184501 -0.257283 -0.051595
v -0.080464 -0.257283 -0.130382
v -0.080464 0.394586 -0.051595
v -0.080464 0.257283 -0.130382
v -0.184501 0.257283 -0.051595
v 0.080464 -0.394586 0.051595
v 0.184501 -0.257283 0.051595
v 0.080464 -0.257283 0.130382
v 0.080464 0.394586 0.051595
v 0.080464 0.257283 0.130382
v 0.184501 0.257283 0.051595
v 0.080464 -0.394586 -0.051595
v 0.080464 -0.257283 -0.130382
v 0.184501 -0.257283 -0.051595
v 0.080464 0.394586 -0.051595
v 0.184501 0.257283 -0.051595
v 0.080464 0.257283 -0.130382
vt 0.303540 0.979998
vt 0.303540 0.979998
vt 0.303540 0.979998
vt 0.303540 0.979998
vt 0.303540 0.979998
vt 0.303540 0.979998
vt 0.303540 0.979998
vt 0.303540 0.979998
vt 0.303540 0.979998
vt 0.303540 0.979998
vt 0.303540 0.979998
vt 0.303540 0.979998
vt 0.303540 0.979998
vt 0.303540 0.979998
vt 0.303540 0.979998
vt 0.303540 0.979998
vt 0.303540 0.979998
vt 0.303540 0.979998
vt 0.303540 0.979998
vt 0.303540 0.979998
vt 0.303540 0.979998
vt 0.303540 0.979998
vt 0.303540 0.979998
vt 0.303540 0.979998
vn 0.0000 0.0000 1.0000
vn 1.0000 0.0000 0.0000
vn 0.0000 1.0000 0.0000
vn -1.0000 0.0000 0.0000
vn 0.0000 0.0000 -1.0000
vn -0.5490 -0.4160 0.7250
vn -0.5490 0.4160 0.7250
vn -0.5490 -0.4160 -0.7250
vn -0.5490 0.4160 -0.7250
vn 0.5490 -0.4160 0.7250
vn 0.5490 0.4160 0.7250
vn 0.5490 -0.4160 -0.7250
vn 0.5490 0.4160 -0.7250
vn -0.7970 -0.6039 0.0000
vn -0.6037 0.0000 0.7972
vn -0.7970 0.6039 0.0000
vn -0.6037 0.0000 -0.7972
vn 0.0000 -0.4977 -0.8674
vn 0.0000 0.4977 -0.8674
vn 0.6037 0.0000 -0.7972
vn 0.7970 -0.6039 0.0000
vn 0.7970 0.6039 0.0000
vn 0.6037 0.0000 0.7972
vn 0.0000 -0.4977 0.8674
vn 0.0000 0.4977 0.8674
vn 0.0000 -1.0000 0.0000
usemtl Atlas
s off
f 15/1/1 17/2/1 4/3/1 2/4/1
f 21/5/2 23/6/2 18/7/2 14/8/2
f 22/9/3 10/10/3 5/11/3 16/12/3
f 3/13/4 6/14/4 12/15/4 8/16/4
f 9/17/5 11/18/5 24/19/5 20/20/5
f 1/21/6 2/4/6 3/13/6
f 4/3/7 5/11/7 6/14/7
f 7/22/8 8/16/8 9/17/8
f 10/10/9 11/18/9 12/15/9
f 13/23/10 14/8/10 15/1/10
f 16/12/11 17/2/11 18/7/11
f 19/24/12 20/20/12 21/5/12
f 22/9/13 23/6/13 24/19/13
f 7/22/14 1/21/14 3/13/14 8/16/14
f 2/4/15 4/3/15 6/14/15 3/13/15
f 5/11/16 10/10/16 12/15/16 6/14/16
f 11/18/17 9/17/17 8/16/17 12/15/17
f 19/24/18 7/22/18 9/17/18 20/20/18
f 10/10/19 22/9/19 24/19/19 11/18/19
f 23/6/20 21/5/20 20/20/20 24/19/20
f 13/23/21 19/24/21 21/5/21 14/8/21
f 22/9/22 16/12/22 18/7/22 23/6/22
f 17/2/23 15/1/23 14/8/23 18/7/23
f 1/21/24 13/23/24 15/1/24 2/4/24
f 16/12/25 5/11/25 4/3/25 17/2/25
f 7/22/26 19/24/26 13/23/26 1/21/26
