# Blender v2.79 (sub 0) OBJ File: 'UI_Paper.blend'
# www.blender.org
mtllib UI_Paper.mtl
o UI_Paper_Plane.007
v -0.257547 0.016903 -0.024979
v -0.068905 0.006573 -0.054516
v 0.127385 -0.187569 0.075242
v -0.149942 0.085514 -0.097055
v -0.052315 0.171892 -0.160178
v 0.058726 -0.108135 0.017210
v 0.241474 -0.092804 0.047533
v -0.178418 0.173353 -0.020146
v -0.023440 0.094990 -0.032249
v 0.058166 -0.135178 0.098386
v -0.058408 0.189191 -0.076188
v 0.058787 0.223958 -0.124578
v 0.034802 -0.045380 0.041397
v 0.189758 -0.098804 0.083779
v 0.019813 -0.274821 0.121864
v 0.239302 -0.105322 0.067551
v -0.036184 0.173974 -0.161495
v -0.259617 0.038000 -0.028999
v -0.260185 0.002968 -0.006533
v 0.048732 0.099588 -0.115795
v -0.121429 0.055840 -0.080040
v -0.166594 0.105610 -0.109947
v -0.227084 0.030025 -0.050770
v -0.070005 0.179505 -0.164986
v -0.075917 0.145419 -0.141318
v -0.060716 -0.203202 0.071681
v 0.245961 -0.072793 0.044474
v 0.107242 -0.155598 0.052556
v 0.133351 -0.211880 0.091657
v 0.210596 -0.120562 0.045028
v 0.178168 -0.013066 -0.037258
v -0.186542 -0.086437 0.006771
v -0.004632 -0.051749 -0.021635
v -0.066295 -0.167394 0.131053
v 0.181900 -0.107975 0.101670
v 0.072997 0.219780 -0.124476
v -0.172154 0.191620 -0.023652
v -0.187153 0.163181 -0.003770
v 0.112562 0.128007 -0.077310
v -0.046957 0.154525 -0.058904
v -0.063859 0.211680 -0.088926
v -0.146212 0.172355 -0.041048
v 0.047306 0.236632 -0.130234
v 0.028133 0.210981 -0.109684
v -0.102918 -0.079599 0.080141
v 0.201073 -0.083847 0.081637
v 0.054906 -0.101755 0.076647
v 0.052973 -0.157208 0.113430
v 0.153990 -0.110623 0.078500
v 0.172523 -0.011159 0.002656
v -0.159441 0.061977 0.012821
v 0.005936 0.023772 0.001901
v 0.057260 -0.267185 0.119412
v 0.244448 -0.082596 0.069940
v -0.263676 0.026585 -0.005680
v -0.054224 0.184068 -0.167869
v -0.236363 -0.034076 -0.009348
v -0.005453 0.146738 -0.144610
v -0.231371 0.057695 -0.066385
v -0.101396 0.155080 -0.147467
v -0.009476 -0.248808 0.104199
v 0.226726 -0.055832 0.004243
v 0.208255 -0.146179 0.065432
v 0.114077 0.042746 -0.078698
v -0.123342 -0.146242 0.035429
v -0.032336 -0.174764 0.131876
v 0.194390 -0.090807 0.104686
v -0.181544 0.184267 -0.002809
v 0.062262 0.234613 -0.131552
v -0.180425 0.123350 -0.005069
v 0.087159 0.186314 -0.107096
v -0.138454 0.196583 -0.055196
v 0.011055 0.228163 -0.117140
v -0.079672 -0.135484 0.113070
v 0.194032 -0.063565 0.043570
v 0.141140 -0.130642 0.096510
v 0.143036 0.057727 -0.039250
v -0.131163 -0.010183 0.043054
v -0.251576 0.019543 -0.020356
v -0.068483 0.010628 -0.047633
v 0.126505 -0.183210 0.081892
v -0.149356 0.089938 -0.090416
v -0.052206 0.176313 -0.153512
v 0.058238 -0.103743 0.023878
v 0.235002 -0.089246 0.050605
v -0.172303 0.173479 -0.014989
v -0.022005 0.098695 -0.025305
v 0.058556 -0.130678 0.104989
v -0.056655 0.193163 -0.069469
v 0.060103 0.228119 -0.117873
v 0.035560 -0.041006 0.048052
v 0.185031 -0.092872 0.086322
v 0.019296 -0.270565 0.128618
v 0.232282 -0.102033 0.069525
v -0.036095 0.178334 -0.154788
v -0.253004 0.040086 -0.025009
v -0.253602 0.005360 -0.002667
v 0.048937 0.103798 -0.108996
v -0.120829 0.060034 -0.073254
v -0.165975 0.110091 -0.103348
v -0.224294 0.033962 -0.044389
v -0.069931 0.183913 -0.158311
v -0.075686 0.149909 -0.134701
v -0.061060 -0.198893 0.078412
v 0.239010 -0.069849 0.047125
v 0.106538 -0.151217 0.059213
v 0.132306 -0.207462 0.098244
v 0.207233 -0.116041 0.050708
v 0.177535 -0.008594 -0.030655
v -0.185903 -0.082542 0.013730
v -0.004676 -0.047543 -0.014830
v -0.065624 -0.163131 0.137789
v 0.176659 -0.102096 0.103067
v 0.074266 0.223893 -0.117733
v -0.165624 0.190966 -0.019077
v -0.180518 0.162816 0.000683
v 0.113869 0.131940 -0.070467
v -0.045295 0.158283 -0.052040
v -0.062049 0.215689 -0.082244
v -0.142624 0.174988 -0.034401
v 0.048584 0.240796 -0.123524
v 0.029591 0.215155 -0.103017
v -0.102066 -0.075356 0.086869
v 0.195698 -0.078296 0.083710
v 0.055464 -0.097304 0.083271
v 0.053241 -0.152589 0.119956
v 0.152264 -0.104999 0.083922
v 0.173186 -0.006656 0.009235
v -0.157880 0.065451 0.019857
v 0.007014 0.027799 0.008728
v 0.056714 -0.262950 0.126177
v 0.236613 -0.080984 0.069904
v -0.255894 0.027493 -0.004061
v -0.054224 0.188339 -0.161105
v -0.234236 -0.030067 -0.002759
v -0.005167 0.151090 -0.137904
v -0.228506 0.061499 -0.059957
v -0.101191 0.159637 -0.140895
v -0.009957 -0.244487 0.110914
v 0.224357 -0.051447 0.010501
v 0.204640 -0.141393 0.070725
v 0.113933 0.047043 -0.071951
v -0.123285 -0.142129 0.042290
v -0.031702 -0.170507 0.138620
v 0.187900 -0.086182 0.103988
v -0.174222 0.182009 -0.000508
v 0.063408 0.238682 -0.124761
v -0.177430 0.126320 0.001728
v 0.088604 0.190341 -0.100336
v -0.134855 0.199066 -0.048497
v 0.012521 0.232407 -0.110519
v -0.078940 -0.131176 0.119771
v 0.193109 -0.058450 0.049652
v 0.139323 -0.124683 0.101528
v 0.144063 0.061877 -0.032489
v -0.130035 -0.006279 0.049945
vt 0.016228 0.984487
vt 0.016228 0.984487
vt 0.016228 0.984487
vt 0.016228 0.984487
vt 0.016228 0.984487
vt 0.016228 0.984487
vt 0.016228 0.984487
vt 0.016228 0.984487
vt 0.016228 0.984487
vt 0.016228 0.984487
vt 0.016228 0.984487
vt 0.016228 0.984487
vt 0.016228 0.984487
vt 0.016228 0.984487
vt 0.016228 0.984487
vt 0.016228 0.984487
vt 0.016228 0.984487
vt 0.016228 0.984487
vt 0.016228 0.984487
vt 0.016228 0.984487
vt 0.016228 0.984487
vt 0.016228 0.984487
vt 0.016228 0.984487
vt 0.016228 0.984487
vt 0.016228 0.984487
vt 0.016228 0.984487
vt 0.016228 0.984487
vt 0.016228 0.984487
vt 0.016228 0.984487
vt 0.016228 0.984487
vt 0.016228 0.984487
vt 0.016228 0.984487
vt 0.016228 0.984487
vt 0.016228 0.984487
vt 0.016228 0.984487
vt 0.016228 0.984487
vt 0.016228 0.984487
vt 0.016228 0.984487
vt 0.016228 0.984487
vt 0.016228 0.984487
vt 0.016228 0.984487
vt 0.016228 0.984487
vt 0.016228 0.984487
vt 0.016228 0.984487
vt 0.016228 0.984487
vt 0.016228 0.984487
vt 0.016228 0.984487
vt 0.016228 0.984487
vt 0.016228 0.984487
vt 0.016228 0.984487
vt 0.016228 0.984487
vt 0.016228 0.984487
vt 0.016228 0.984487
vt 0.016228 0.984487
vt 0.016228 0.984487
vt 0.016228 0.984487
vt 0.016228 0.984487
vt 0.016228 0.984487
vt 0.016228 0.984487
vt 0.016228 0.984487
vt 0.016228 0.984487
vt 0.016228 0.984487
vt 0.016228 0.984487
vt 0.016228 0.984487
vt 0.016228 0.984487
vt 0.016228 0.984487
vt 0.016228 0.984487
vt 0.016228 0.984487
vt 0.016228 0.984487
vt 0.016228 0.984487
vt 0.016228 0.984487
vt 0.016228 0.984487
vt 0.016228 0.984487
vt 0.016228 0.984487
vt 0.016228 0.984487
vt 0.016228 0.984487
vt 0.016228 0.984487
vt 0.016228 0.984487
vt 0.016228 0.984487
vt 0.016228 0.984487
vt 0.016228 0.984487
vt 0.016228 0.984487
vt 0.016228 0.984487
vt 0.016228 0.984487
vt 0.016228 0.984487
vt 0.016228 0.984487
vt 0.016228 0.984487
vt 0.016228 0.984487
vt 0.016228 0.984487
vt 0.016228 0.984487
vt 0.016228 0.984487
vt 0.016228 0.984487
vt 0.016228 0.984487
vt 0.016228 0.984487
vt 0.016228 0.984487
vt 0.016228 0.984487
vt 0.016228 0.984487
vt 0.016228 0.984487
vt 0.016228 0.984487
vt 0.016228 0.984487
vt 0.016228 0.984487
vt 0.016228 0.984487
vt 0.016228 0.984487
vt 0.016228 0.984487
vt 0.016228 0.984487
vt 0.016228 0.984487
vt 0.016228 0.984487
vt 0.016228 0.984487
vt 0.016228 0.984487
vt 0.016228 0.984487
vt 0.016228 0.984487
vt 0.016228 0.984487
vt 0.016228 0.984487
vt 0.016228 0.984487
vt 0.016228 0.984487
vt 0.016228 0.984487
vt 0.016228 0.984487
vt 0.016228 0.984487
vt 0.016228 0.984487
vt 0.016228 0.984487
vt 0.016228 0.984487
vt 0.016228 0.984487
vt 0.016228 0.984487
vt 0.016228 0.984487
vt 0.016228 0.984487
vt 0.016228 0.984487
vt 0.016228 0.984487
vt 0.016228 0.984487
vt 0.016228 0.984487
vt 0.016228 0.984487
vt 0.016228 0.984487
vt 0.016228 0.984487
vt 0.016228 0.984487
vt 0.016228 0.984487
vt 0.016228 0.984487
vt 0.016228 0.984487
vt 0.016228 0.984487
vt 0.016228 0.984487
vt 0.016228 0.984487
vt 0.016228 0.984487
vt 0.016228 0.984487
vt 0.016228 0.984487
vt 0.016228 0.984487
vt 0.016228 0.984487
vt 0.016228 0.984487
vt 0.016228 0.984487
vt 0.016228 0.984487
vt 0.016228 0.984487
vt 0.016228 0.984487
vt 0.016228 0.984487
vt 0.016228 0.984487
vt 0.016228 0.984487
vt 0.016228 0.984487
vt 0.016228 0.984487
vt 0.016228 0.984487
vt 0.016228 0.984487
vn -0.5685 -0.4213 -0.7066
vn -0.3316 -0.4891 -0.8068
vn -0.2506 -0.4939 -0.8326
vn -0.5632 -0.4471 -0.6949
vn -0.9619 -0.1364 -0.2370
vn -0.5777 -0.3685 -0.7283
vn -0.2632 -0.5090 -0.8196
vn -0.0529 -0.5069 -0.8604
vn 0.0055 -0.5258 -0.8506
vn -0.0073 -0.5140 -0.8577
vn -0.0802 -0.4868 -0.8698
vn -0.0765 -0.5240 -0.8483
vn -0.0372 -0.5397 -0.8410
vn -0.0256 -0.5263 -0.8499
vn 0.0182 -0.5371 -0.8433
vn 0.1205 -0.5489 -0.8272
vn 0.1117 -0.5452 -0.8308
vn 0.0686 -0.5295 -0.8455
vn 0.0628 -0.5333 -0.8436
vn 0.0602 -0.5402 -0.8394
vn 0.0916 -0.5482 -0.8313
vn 0.1169 -0.5618 -0.8190
vn 0.1409 -0.5491 -0.8238
vn 0.1965 -0.5727 -0.7959
vn -0.0762 -0.5523 -0.8301
vn -0.0740 -0.5615 -0.8242
vn -0.0275 -0.5701 -0.8211
vn -0.0307 -0.5600 -0.8279
vn -0.0126 -0.5500 -0.8351
vn -0.0131 -0.5581 -0.8296
vn -0.0001 -0.5340 -0.8455
vn -0.0168 -0.5505 -0.8347
vn 0.0618 -0.5492 -0.8334
vn 0.0430 -0.5387 -0.8414
vn 0.0792 -0.5589 -0.8254
vn 0.6450 -0.5076 -0.5712
vn 0.6620 -0.5481 -0.5112
vn 0.6286 -0.4725 -0.6177
vn 0.9750 -0.2202 -0.0291
vn 0.6718 -0.5748 -0.4673
vn -0.6283 -0.1736 -0.7584
vn -0.4312 -0.3333 -0.8385
vn -0.3578 -0.3707 -0.8571
vn -0.6349 -0.1996 -0.7464
vn -0.9113 0.2540 -0.3242
vn -0.6136 -0.1217 -0.7802
vn -0.3764 -0.3786 -0.8455
vn -0.1795 -0.4630 -0.8680
vn -0.1346 -0.5036 -0.8534
vn -0.1410 -0.4879 -0.8614
vn -0.1955 -0.4339 -0.8795
vn -0.2089 -0.4689 -0.8582
vn -0.1801 -0.4990 -0.8477
vn -0.1633 -0.4916 -0.8554
vn -0.1283 -0.5189 -0.8452
vn -0.0410 -0.5706 -0.8202
vn -0.0471 -0.5638 -0.8246
vn -0.0791 -0.5323 -0.8429
vn -0.0860 -0.5334 -0.8415
vn -0.0916 -0.5386 -0.8376
vn -0.0667 -0.5584 -0.8269
vn -0.0502 -0.5808 -0.8125
vn -0.0225 -0.5791 -0.8149
vn 0.0163 -0.6222 -0.7827
vn -0.2217 -0.4945 -0.8404
vn -0.2239 -0.5037 -0.8344
vn -0.1851 -0.5302 -0.8274
vn -0.1834 -0.5198 -0.8344
vn -0.1622 -0.5182 -0.8398
vn -0.1664 -0.5253 -0.8345
vn -0.1435 -0.5088 -0.8488
vn -0.1663 -0.5169 -0.8397
vn -0.0943 -0.5473 -0.8316
vn -0.1065 -0.5303 -0.8411
vn -0.0830 -0.5630 -0.8223
vn 0.4322 -0.7375 -0.5189
vn 0.4261 -0.7797 -0.4588
vn 0.4355 -0.6994 -0.5667
vn 0.8018 -0.5955 0.0501
vn 0.4203 -0.8074 -0.4140
vn 0.5650 0.4224 0.7087
vn 0.5612 0.4439 0.6986
vn 0.2396 0.4934 0.8362
vn 0.3273 0.4900 0.8079
vn 0.9727 0.1135 0.2024
vn 0.2501 0.5131 0.8211
vn 0.5724 0.3740 0.7297
vn 0.0528 0.5069 0.8604
vn 0.0796 0.4870 0.8698
vn 0.0073 0.5141 0.8577
vn -0.0055 0.5257 0.8506
vn 0.0755 0.5244 0.8481
vn 0.0256 0.5263 0.8499
vn 0.0373 0.5397 0.8410
vn -0.0182 0.5371 0.8433
vn -0.1183 0.5484 0.8278
vn -0.0627 0.5333 0.8436
vn -0.0684 0.5294 0.8456
vn -0.1092 0.5446 0.8316
vn -0.0900 0.5476 0.8319
vn -0.0601 0.5402 0.8394
vn -0.1355 0.5475 0.8258
vn -0.1149 0.5615 0.8194
vn -0.1923 0.5722 0.7973
vn 0.0749 0.5524 0.8302
vn 0.0724 0.5614 0.8243
vn 0.0307 0.5600 0.8280
vn 0.0274 0.5701 0.8211
vn 0.0125 0.5499 0.8351
vn 0.0131 0.5582 0.8296
vn 0.0168 0.5505 0.8347
vn 0.0000 0.5338 0.8456
vn -0.0616 0.5492 0.8334
vn -0.0430 0.5387 0.8414
vn -0.0785 0.5587 0.8256
vn -0.6418 0.5081 0.5744
vn -0.6255 0.4781 0.6166
vn -0.6627 0.5505 0.5077
vn -0.9795 0.2016 -0.0046
vn -0.6725 0.5725 0.4690
vn 0.6251 0.1763 0.7603
vn 0.6312 0.1973 0.7501
vn 0.3463 0.3751 0.8599
vn 0.4273 0.3361 0.8393
vn 0.9152 -0.2823 0.2876
vn 0.3650 0.3886 0.8460
vn 0.6106 0.1296 0.7813
vn 0.1794 0.4631 0.8679
vn 0.1950 0.4343 0.8794
vn 0.1410 0.4879 0.8614
vn 0.1346 0.5036 0.8534
vn 0.2082 0.4697 0.8579
vn 0.1633 0.4916 0.8554
vn 0.1801 0.4989 0.8477
vn 0.1283 0.5189 0.8452
vn 0.0429 0.5692 0.8211
vn 0.0861 0.5333 0.8415
vn 0.0793 0.5321 0.8430
vn 0.0493 0.5621 0.8256
vn 0.0680 0.5571 0.8277
vn 0.0916 0.5385 0.8376
vn 0.0270 0.5751 0.8176
vn 0.0520 0.5796 0.8133
vn -0.0124 0.6199 0.7846
vn 0.2204 0.4952 0.8404
vn 0.2222 0.5043 0.8344
vn 0.1833 0.5198 0.8344
vn 0.1850 0.5302 0.8274
vn 0.1621 0.5181 0.8398
vn 0.1664 0.5253 0.8345
vn 0.1663 0.5169 0.8397
vn 0.1434 0.5087 0.8489
vn 0.0944 0.5472 0.8317
vn 0.1065 0.5303 0.8411
vn 0.0835 0.5625 0.8226
vn -0.4290 0.7367 0.5227
vn -0.4298 0.7036 0.5658
vn -0.4255 0.7823 0.4550
vn -0.8113 0.5781 -0.0872
vn -0.4222 0.8055 0.4158
vn -0.7336 -0.5941 0.3301
vn -0.7308 -0.5990 0.3274
vn -0.7336 -0.5940 0.3302
vn 0.2023 -0.8220 0.5323
vn 0.4269 -0.7409 0.5184
vn 0.4256 -0.7415 0.5186
vn 0.5270 -0.3891 0.7555
vn 0.2473 -0.1914 0.9499
vn 0.2429 -0.1882 0.9516
vn 0.5176 -0.3827 0.7652
vn 0.1013 -0.0846 0.9912
vn 0.7174 0.5756 -0.3925
vn 0.6389 0.6411 -0.4252
vn 0.6386 0.6413 -0.4254
vn 0.7174 0.5757 -0.3925
vn 0.5492 0.7020 -0.4534
vn -0.6398 0.7613 -0.1051
vn -0.4628 0.8547 0.2350
vn -0.4618 0.8549 0.2365
vn -0.6366 0.7651 -0.0970
vn -0.3355 0.8492 0.4079
vn -0.3499 -0.0332 0.9362
vn -0.4821 -0.2131 0.8498
vn -0.4790 -0.2085 0.8527
vn -0.6674 -0.4686 0.5788
vn -0.6534 -0.4524 0.6069
vn 0.7275 0.5860 -0.3569
vn 0.7177 0.5821 -0.3821
vn 0.7178 0.5822 -0.3818
vn 0.7276 0.5860 -0.3565
vn -0.6902 0.6111 -0.3877
vn -0.6903 0.6507 -0.3163
vn -0.6902 0.6512 -0.3154
vn -0.3199 0.7967 -0.5128
vn -0.5174 0.7183 -0.4651
vn -0.5180 0.7180 -0.4649
vn -0.7280 -0.5834 0.3601
vn -0.7350 -0.5868 0.3398
vn -0.7349 -0.5868 0.3399
vn -0.7279 -0.5834 0.3604
vn 0.3337 0.8546 0.3979
vn 0.5088 0.8284 0.2343
vn 0.5051 0.8296 0.2382
vn 0.7205 0.6849 -0.1085
vn 0.7112 0.6984 -0.0810
vn 0.6362 -0.5454 0.5457
vn 0.6363 -0.5443 0.5467
vn 0.7457 0.5980 -0.2939
vn 0.7461 0.5984 -0.2919
vn -0.7202 -0.5570 0.4135
vn -0.7200 -0.5555 0.4159
vn -0.9356 -0.2412 0.2577
vn -0.9348 -0.2469 0.2552
vn -0.9357 -0.2411 0.2578
vn -0.1915 -0.8212 0.5376
vn 0.0470 -0.8375 0.5444
vn 0.0456 -0.8376 0.5444
vn 0.2576 -0.5514 0.7935
vn 0.0648 -0.2545 0.9649
vn 0.0620 -0.2500 0.9663
vn 0.2507 -0.5414 0.8025
vn -0.0284 -0.0980 0.9948
vn 0.9188 0.2292 -0.3215
vn 0.8765 0.3197 -0.3600
vn 0.8763 0.3200 -0.3602
vn 0.9188 0.2293 -0.3215
vn 0.8217 0.4108 -0.3951
vn -0.2660 0.9518 -0.1525
vn -0.0951 0.9749 0.2013
vn -0.0943 0.9747 0.2027
vn -0.2622 0.9542 -0.1440
vn 0.0037 0.9234 0.3838
vn -0.4126 0.1271 0.9020
vn -0.5970 0.0138 0.8021
vn -0.5926 0.0167 0.8053
vn -0.8453 -0.1495 0.5130
vn -0.8284 -0.1401 0.5424
vn 0.9291 0.2356 -0.2850
vn 0.9208 0.2354 -0.3111
vn 0.9209 0.2354 -0.3107
vn 0.9292 0.2356 -0.2847
vn -0.3503 0.8276 -0.4386
vn -0.3400 0.8657 -0.3673
vn -0.3398 0.8662 -0.3663
vn 0.0720 0.8458 -0.5287
vn -0.1435 0.8544 -0.4993
vn -0.1441 0.8544 -0.4992
vn -0.9288 -0.2329 0.2882
vn -0.9348 -0.2337 0.2673
vn -0.9348 -0.2337 0.2674
vn -0.9287 -0.2330 0.2885
vn 0.6155 0.6594 0.4317
vn 0.7772 0.5616 0.2837
vn 0.7741 0.5641 0.2872
vn 0.9410 0.3362 -0.0391
vn 0.9355 0.3531 -0.0126
vn 0.3136 -0.7422 0.5923
vn 0.3140 -0.7412 0.5933
vn 0.9451 0.2410 -0.2208
vn 0.9455 0.2413 -0.2187
vn -0.9155 -0.2111 0.3426
vn -0.9149 -0.2097 0.3450
usemtl Atlas
s 1
f 1/1/1 23/2/2 57/3/3 19/4/4
f 1/1/5 19/4/5 55/5/5 18/6/5
f 1/1/1 18/6/6 59/7/7 23/2/2
f 2/8/8 33/9/9 65/10/10 32/11/11
f 2/8/8 32/11/11 57/3/3 21/12/12
f 2/8/8 21/12/12 58/13/13 20/14/14
f 2/8/8 20/14/14 64/15/15 33/9/9
f 3/16/16 29/17/17 53/18/18 15/19/19
f 3/16/16 15/19/19 61/20/20 28/21/21
f 3/16/16 28/21/21 62/22/22 30/23/23
f 3/16/16 30/23/23 63/24/24 29/17/17
f 4/25/25 23/2/2 59/7/7 22/26/26
f 4/25/25 22/26/26 60/27/27 25/28/28
f 4/25/25 25/28/28 58/13/13 21/12/12
f 4/25/25 21/12/12 57/3/3 23/2/2
f 5/29/29 25/28/28 60/27/27 24/30/30
f 5/29/29 24/30/30 56/31/31 17/32/32
f 5/29/29 17/32/32 58/13/13 25/28/28
f 6/33/33 28/21/21 61/20/20 26/34/34
f 6/33/33 26/34/34 65/10/10 33/9/9
f 6/33/33 33/9/9 64/15/15 31/35/35
f 6/33/33 31/35/35 62/22/22 28/21/21
f 7/36/36 30/23/37 62/22/38 27/37/38
f 7/36/39 27/37/39 54/38/39 16/39/39
f 7/36/36 16/39/40 63/24/40 30/23/37
f 8/40/41 42/41/42 70/42/43 38/43/44
f 8/40/45 38/43/45 68/44/45 37/45/45
f 8/40/41 37/45/46 72/46/47 42/41/42
f 9/47/48 52/48/49 78/49/50 51/50/51
f 9/47/48 51/50/51 70/42/43 40/51/52
f 9/47/48 40/51/52 71/52/53 39/53/54
f 9/47/48 39/53/54 77/54/55 52/48/49
f 10/55/56 48/56/57 66/57/58 34/58/59
f 10/55/56 34/58/59 74/59/60 47/60/61
f 10/55/56 47/60/61 75/61/62 49/62/63
f 10/55/56 49/62/63 76/63/64 48/56/57
f 11/64/65 42/41/42 72/46/47 41/65/66
f 11/64/65 41/65/66 73/66/67 44/67/68
f 11/64/65 44/67/68 71/52/53 40/51/52
f 11/64/65 40/51/52 70/42/43 42/41/42
f 12/68/69 44/67/68 73/66/67 43/69/70
f 12/68/69 43/69/70 69/70/71 36/71/72
f 12/68/69 36/71/72 71/52/53 44/67/68
f 13/72/73 47/60/61 74/59/60 45/73/74
f 13/72/73 45/73/74 78/49/50 52/48/49
f 13/72/73 52/48/49 77/54/55 50/74/75
f 13/72/73 50/74/75 75/61/62 47/60/61
f 14/75/76 49/62/77 75/61/78 46/76/78
f 14/75/79 46/76/79 67/77/79 35/78/79
f 14/75/76 35/78/80 76/63/80 49/62/77
f 79/79/81 97/80/82 135/81/83 101/82/84
f 79/79/85 96/83/85 133/84/85 97/80/85
f 79/79/81 101/82/84 137/85/86 96/83/87
f 80/86/88 110/87/89 143/88/90 111/89/91
f 80/86/88 99/90/92 135/81/83 110/87/89
f 80/86/88 98/91/93 136/92/94 99/90/92
f 80/86/88 111/89/91 142/93/95 98/91/93
f 81/94/96 93/95/97 131/96/98 107/97/99
f 81/94/96 106/98/100 139/99/101 93/95/97
f 81/94/96 108/100/102 140/101/103 106/98/100
f 81/94/96 107/97/99 141/102/104 108/100/102
f 82/103/105 100/104/106 137/85/86 101/82/84
f 82/103/105 103/105/107 138/106/108 100/104/106
f 82/103/105 99/90/92 136/92/94 103/105/107
f 82/103/105 101/82/84 135/81/83 99/90/92
f 83/107/109 102/108/110 138/106/108 103/105/107
f 83/107/109 95/109/111 134/110/112 102/108/110
f 83/107/109 103/105/107 136/92/94 95/109/111
f 84/111/113 104/112/114 139/99/101 106/98/100
f 84/111/113 111/89/91 143/88/90 104/112/114
f 84/111/113 109/113/115 142/93/95 111/89/91
f 84/111/113 106/98/100 140/101/103 109/113/115
f 85/114/116 105/115/117 140/101/117 108/100/118
f 85/114/119 94/116/119 132/117/119 105/115/119
f 85/114/116 108/100/118 141/102/120 94/116/120
f 86/118/121 116/119/122 148/120/123 120/121/124
f 86/118/125 115/122/125 146/123/125 116/119/125
f 86/118/121 120/121/124 150/124/126 115/122/127
f 87/125/128 129/126/129 156/127/130 130/128/131
f 87/125/128 118/129/132 148/120/123 129/126/129
f 87/125/128 117/130/133 149/131/134 118/129/132
f 87/125/128 130/128/131 155/132/135 117/130/133
f 88/133/136 112/134/137 144/135/138 126/136/139
f 88/133/136 125/137/140 152/138/141 112/134/137
f 88/133/136 127/139/142 153/140/143 125/137/140
f 88/133/136 126/136/139 154/141/144 127/139/142
f 89/142/145 119/143/146 150/124/126 120/121/124
f 89/142/145 122/144/147 151/145/148 119/143/146
f 89/142/145 118/129/132 149/131/134 122/144/147
f 89/142/145 120/121/124 148/120/123 118/129/132
f 90/146/149 121/147/150 151/145/148 122/144/147
f 90/146/149 114/148/151 147/149/152 121/147/150
f 90/146/149 122/144/147 149/131/134 114/148/151
f 91/150/153 123/151/154 152/138/141 125/137/140
f 91/150/153 130/128/131 156/127/130 123/151/154
f 91/150/153 128/152/155 155/132/135 130/128/131
f 91/150/153 125/137/140 153/140/143 128/152/155
f 92/153/156 124/154/157 153/140/157 127/139/158
f 92/153/159 113/155/159 145/156/159 124/154/159
f 92/153/156 127/139/158 154/141/160 113/155/160
f 61/20/161 15/19/162 93/95/162 139/99/163
f 15/19/164 53/18/165 131/96/166 93/95/164
f 63/24/167 16/39/168 94/116/169 141/102/170
f 16/39/168 54/38/171 132/117/171 94/116/169
f 58/13/172 17/32/173 95/109/174 136/92/175
f 17/32/173 56/31/176 134/110/176 95/109/174
f 59/7/177 18/6/178 96/83/179 137/85/180
f 18/6/178 55/5/181 133/84/181 96/83/179
f 55/5/182 19/4/183 97/80/184 133/84/182
f 19/4/183 57/3/185 135/81/186 97/80/184
f 64/15/187 20/14/188 98/91/189 142/93/190
f 20/14/188 58/13/172 136/92/175 98/91/189
f 60/27/191 22/26/192 100/104/193 138/106/191
f 22/26/192 59/7/177 137/85/180 100/104/193
f 56/31/194 24/30/195 102/108/196 134/110/194
f 24/30/195 60/27/191 138/106/191 102/108/196
f 65/10/197 26/34/198 104/112/199 143/88/200
f 26/34/198 61/20/161 139/99/163 104/112/199
f 54/38/201 27/37/202 105/115/203 132/117/201
f 27/37/202 62/22/204 140/101/205 105/115/203
f 53/18/165 29/17/206 107/97/207 131/96/166
f 29/17/206 63/24/167 141/102/170 107/97/207
f 62/22/204 31/35/208 109/113/209 140/101/205
f 31/35/208 64/15/187 142/93/190 109/113/209
f 57/3/185 32/11/210 110/87/211 135/81/186
f 32/11/210 65/10/197 143/88/200 110/87/211
f 74/59/212 34/58/213 112/134/213 152/138/214
f 34/58/215 66/57/216 144/135/217 112/134/215
f 76/63/218 35/78/219 113/155/220 154/141/221
f 35/78/219 67/77/222 145/156/222 113/155/220
f 71/52/223 36/71/224 114/148/225 149/131/226
f 36/71/224 69/70/227 147/149/227 114/148/225
f 72/46/228 37/45/229 115/122/230 150/124/231
f 37/45/229 68/44/232 146/123/232 115/122/230
f 68/44/233 38/43/234 116/119/235 146/123/233
f 38/43/234 70/42/236 148/120/237 116/119/235
f 77/54/238 39/53/239 117/130/240 155/132/241
f 39/53/239 71/52/223 149/131/226 117/130/240
f 73/66/242 41/65/243 119/143/244 151/145/242
f 41/65/243 72/46/228 150/124/231 119/143/244
f 69/70/245 43/69/246 121/147/247 147/149/245
f 43/69/246 73/66/242 151/145/242 121/147/247
f 78/49/248 45/73/249 123/151/250 156/127/251
f 45/73/249 74/59/212 152/138/214 123/151/250
f 67/77/252 46/76/253 124/154/254 145/156/252
f 46/76/253 75/61/255 153/140/256 124/154/254
f 66/57/216 48/56/257 126/136/258 144/135/217
f 48/56/257 76/63/218 154/141/221 126/136/258
f 75/61/255 50/74/259 128/152/260 153/140/256
f 50/74/259 77/54/238 155/132/241 128/152/260
f 70/42/236 51/50/261 129/126/262 148/120/237
f 51/50/261 78/49/248 156/127/251 129/126/262
