# Blender v2.79 (sub 0) OBJ File: 'UI_Red_X.blend'
# www.blender.org
mtllib UI_Red_X.mtl
o UI_Red_X_Plane
v 0.371124 0.106372 -0.513845
v 0.505135 0.106372 -0.379833
v 0.073606 0.106372 -0.196691
v 0.330236 0.080475 -0.497522
v 0.148208 0.106372 -0.251921
v 0.227380 0.106372 -0.325649
v 0.299181 0.106372 -0.406731
v 0.474299 0.106372 -0.360511
v 0.195140 0.106372 -0.074261
v 0.399697 0.106372 -0.305281
v 0.320525 0.106372 -0.231553
v 0.248724 0.106372 -0.150471
v -0.000000 0.080475 -0.182214
v -0.371124 0.106372 -0.513845
v -0.505135 0.106372 -0.379833
v -0.073606 0.106372 -0.196691
v -0.330236 0.080475 -0.497522
v -0.148208 0.106372 -0.251921
v -0.227380 0.106372 -0.325649
v -0.299181 0.106372 -0.406731
v -0.474299 0.106372 -0.360511
v -0.195140 0.106372 -0.074261
v -0.399697 0.106372 -0.305281
v -0.320525 0.106372 -0.231553
v -0.248724 0.106372 -0.150471
v 0.182214 0.080475 -0.000000
v 0.371124 0.106372 0.513845
v 0.505135 0.106372 0.379833
v 0.073606 0.106372 0.196691
v 0.330236 0.080475 0.497522
v 0.148208 0.106372 0.251921
v 0.227380 0.106372 0.325649
v 0.299181 0.106372 0.406731
v 0.474299 0.106372 0.360511
v 0.195140 0.106372 0.074261
v 0.399697 0.106372 0.305281
v 0.320525 0.106372 0.231553
v 0.248724 0.106372 0.150471
v -0.000000 0.080475 0.182214
v -0.182214 0.080475 -0.000000
v -0.000000 0.106372 -0.000000
v -0.371124 0.106372 0.513845
v -0.505135 0.106372 0.379833
v -0.073606 0.106372 0.196691
v -0.330236 0.080475 0.497522
v -0.148208 0.106372 0.251921
v -0.227380 0.106372 0.325649
v -0.299181 0.106372 0.406731
v -0.474299 0.106372 0.360511
v -0.195140 0.106372 0.074261
v -0.399697 0.106372 0.305281
v -0.320525 0.106372 0.231553
v -0.248724 0.106372 0.150471
v 0.182214 0.000000 -0.000000
v -0.000000 0.000000 -0.182214
v -0.000000 0.000000 -0.000000
v 0.547905 0.000000 -0.374987
v 0.365690 0.000000 -0.557202
v 0.416866 0.000000 -0.284627
v 0.489419 0.000000 -0.338339
v 0.330236 0.000000 -0.497522
v 0.278109 0.000000 -0.423384
v 0.339745 0.000000 -0.212809
v 0.208160 0.000000 -0.344393
v 0.269796 0.000000 -0.133818
v 0.131038 0.000000 -0.272575
v 0.217668 0.000000 -0.059680
v 0.058486 0.000000 -0.218862
v -0.182214 0.000000 -0.000000
v -0.547905 0.000000 -0.374987
v -0.365690 0.000000 -0.557202
v -0.416866 0.000000 -0.284627
v -0.489419 0.000000 -0.338339
v -0.330236 0.000000 -0.497522
v -0.278109 0.000000 -0.423384
v -0.339745 0.000000 -0.212809
v -0.208160 0.000000 -0.344393
v -0.269796 0.000000 -0.133818
v -0.131039 0.000000 -0.272575
v -0.217668 0.000000 -0.059680
v -0.058486 0.000000 -0.218862
v -0.000000 0.000000 0.182214
v 0.547905 0.000000 0.374987
v 0.365690 0.000000 0.557202
v 0.416866 0.000000 0.284627
v 0.489419 0.000000 0.338339
v 0.330236 0.000000 0.497522
v 0.278109 0.000000 0.423384
v 0.339745 0.000000 0.212809
v 0.208160 0.000000 0.344393
v 0.269796 0.000000 0.133818
v 0.131038 0.000000 0.272575
v 0.217668 0.000000 0.059680
v 0.058486 0.000000 0.218862
v -0.547905 0.000000 0.374987
v -0.365690 0.000000 0.557202
v -0.416866 0.000000 0.284627
v -0.489419 0.000000 0.338339
v -0.330236 0.000000 0.497522
v -0.278109 0.000000 0.423384
v -0.339745 0.000000 0.212809
v -0.208160 0.000000 0.344393
v -0.269796 0.000000 0.133818
v -0.131039 0.000000 0.272575
v -0.217668 0.000000 0.059680
v -0.058486 0.000000 0.218862
v 0.547905 0.080475 -0.374987
v 0.365690 0.080475 -0.557202
v 0.416866 0.080475 -0.284627
v 0.489419 0.080475 -0.338339
v 0.352765 0.106372 -0.482941
v 0.278109 0.080475 -0.423384
v 0.339745 0.080475 -0.212809
v 0.208160 0.080475 -0.344393
v 0.269796 0.080475 -0.133818
v 0.131038 0.080475 -0.272575
v 0.217668 0.080475 -0.059680
v 0.058486 0.080475 -0.218862
v -0.000000 0.106372 -0.150569
v 0.151023 0.106372 -0.000000
v -0.547905 0.080475 -0.374987
v -0.365690 0.080475 -0.557202
v -0.416866 0.080475 -0.284627
v -0.489419 0.080475 -0.338339
v -0.352765 0.106372 -0.482941
v -0.278109 0.080475 -0.423384
v -0.339745 0.080475 -0.212809
v -0.208160 0.080475 -0.344393
v -0.269796 0.080475 -0.133818
v -0.131039 0.080475 -0.272575
v -0.217668 0.080475 -0.059680
v -0.058486 0.080475 -0.218862
v -0.151023 0.106372 -0.000000
v 0.547905 0.080475 0.374987
v 0.365690 0.080475 0.557202
v 0.416866 0.080475 0.284627
v 0.489419 0.080475 0.338339
v 0.352765 0.106372 0.482941
v 0.278109 0.080475 0.423384
v 0.339745 0.080475 0.212809
v 0.208160 0.080475 0.344393
v 0.269796 0.080475 0.133818
v 0.131038 0.080475 0.272575
v 0.217668 0.080475 0.059680
v 0.058486 0.080475 0.218862
v -0.000000 0.106372 0.150569
v -0.547905 0.080475 0.374987
v -0.365690 0.080475 0.557202
v -0.416866 0.080475 0.284627
v -0.489419 0.080475 0.338339
v -0.352765 0.106372 0.482941
v -0.278109 0.080475 0.423384
v -0.339745 0.080475 0.212809
v -0.208160 0.080475 0.344393
v -0.269796 0.080475 0.133818
v -0.131039 0.080475 0.272575
v -0.217668 0.080475 0.059680
v -0.058486 0.080475 0.218862
vt 0.171358 0.988312
vt 0.171358 0.988312
vt 0.171358 0.988312
vt 0.171358 0.988312
vt 0.171358 0.988312
vt 0.171358 0.988312
vt 0.171358 0.988312
vt 0.171358 0.988312
vt 0.171358 0.988312
vt 0.171358 0.988312
vt 0.171358 0.988312
vt 0.171358 0.988312
vt 0.171358 0.988312
vt 0.171358 0.988312
vt 0.171358 0.988312
vt 0.171358 0.988312
vt 0.171358 0.988312
vt 0.171358 0.988312
vt 0.171358 0.988312
vt 0.171358 0.988312
vt 0.171358 0.988312
vt 0.171358 0.988312
vt 0.171358 0.988312
vt 0.171358 0.988312
vt 0.171358 0.988312
vt 0.171358 0.988312
vt 0.171358 0.988312
vt 0.171358 0.988312
vt 0.171358 0.988312
vt 0.171358 0.988312
vt 0.171358 0.988312
vt 0.171358 0.988312
vt 0.171358 0.988312
vt 0.171358 0.988312
vt 0.171358 0.988312
vt 0.171358 0.988312
vt 0.171358 0.988312
vt 0.171358 0.988312
vt 0.171358 0.988312
vt 0.171358 0.988312
vt 0.171358 0.988312
vt 0.171358 0.988312
vt 0.171358 0.988312
vt 0.171358 0.988312
vt 0.171358 0.988312
vt 0.171358 0.988312
vt 0.171358 0.988312
vt 0.171358 0.988312
vt 0.171358 0.988312
vt 0.171358 0.988312
vt 0.171358 0.988312
vt 0.171358 0.988312
vt 0.171358 0.988312
vt 0.171358 0.988312
vt 0.171358 0.988312
vt 0.171358 0.988312
vt 0.171358 0.988312
vt 0.171358 0.988312
vt 0.171358 0.988312
vt 0.171358 0.988312
vt 0.171358 0.988312
vt 0.171358 0.988312
vt 0.171358 0.988312
vt 0.171358 0.988312
vt 0.171358 0.988312
vt 0.171358 0.988312
vt 0.171358 0.988312
vt 0.171358 0.988312
vt 0.171358 0.988312
vt 0.171358 0.988312
vt 0.171358 0.988312
vt 0.171358 0.988312
vt 0.171358 0.988312
vt 0.171358 0.988312
vt 0.171358 0.988312
vt 0.171358 0.988312
vt 0.171358 0.988312
vt 0.171358 0.988312
vt 0.171358 0.988312
vt 0.171358 0.988312
vt 0.171358 0.988312
vt 0.171358 0.988312
vt 0.171358 0.988312
vt 0.171358 0.988312
vt 0.171358 0.988312
vt 0.171358 0.988312
vt 0.171358 0.988312
vt 0.171358 0.988312
vt 0.171358 0.988312
vt 0.171358 0.988312
vt 0.171358 0.988312
vt 0.171358 0.988312
vt 0.171358 0.988312
vt 0.171358 0.988312
vt 0.171358 0.988312
vt 0.171358 0.988312
vt 0.171358 0.988312
vt 0.171358 0.988312
vt 0.171358 0.988312
vt 0.171358 0.988312
vt 0.171358 0.988312
vt 0.171358 0.988312
vt 0.171358 0.988312
vt 0.171358 0.988312
vt 0.171358 0.988312
vt 0.171358 0.988312
vt 0.171358 0.988312
vt 0.171358 0.988312
vt 0.171358 0.988312
vt 0.171358 0.988312
vt 0.171358 0.988312
vt 0.171358 0.988312
vt 0.171358 0.988312
vt 0.171358 0.988312
vt 0.171358 0.988312
vt 0.171358 0.988312
vt 0.171358 0.988312
vt 0.171358 0.988312
vt 0.171358 0.988312
vt 0.171358 0.988312
vt 0.171358 0.988312
vt 0.171358 0.988312
vt 0.171358 0.988312
vt 0.171358 0.988312
vt 0.171358 0.988312
vt 0.171358 0.988312
vt 0.171358 0.988312
vt 0.171358 0.988312
vt 0.171358 0.988312
vt 0.171358 0.988312
vt 0.171358 0.988312
vt 0.171358 0.988312
vt 0.171358 0.988312
vt 0.171358 0.988312
vt 0.171358 0.988312
vt 0.171358 0.988312
vt 0.171358 0.988312
vt 0.171358 0.988312
vt 0.171358 0.988312
vt 0.171358 0.988312
vt 0.171358 0.988312
vt 0.171358 0.988312
vt 0.171358 0.988312
vt 0.171358 0.988312
vt 0.171358 0.988312
vt 0.171358 0.988312
vt 0.171358 0.988312
vt 0.171358 0.988312
vt 0.171358 0.988312
vt 0.171358 0.988312
vt 0.171358 0.988312
vt 0.171358 0.988312
vt 0.171358 0.988312
vt 0.171358 0.988312
vt 0.171358 0.988312
vt 0.171358 0.988312
vt 0.171358 0.988312
vt 0.171358 0.988312
vn 0.0000 1.0000 -0.0000
vn 0.0000 -1.0000 0.0000
vn -0.6393 0.0000 0.7690
vn -0.7159 0.0000 0.6982
vn -0.5634 0.0000 0.8262
vn 0.7159 0.0000 -0.6982
vn 0.7846 0.0000 -0.6200
vn 0.7071 0.0000 -0.7071
vn 0.6393 0.0000 0.7690
vn 0.5634 0.0000 0.8262
vn -0.5310 0.0000 0.8474
vn -0.7846 0.0000 0.6200
vn 0.8395 0.0000 -0.5434
vn 0.8597 0.0000 -0.5107
vn 0.6393 0.0000 -0.7690
vn -0.8395 0.0000 -0.5434
vn -0.7846 0.0000 -0.6200
vn -0.8395 0.0000 0.5434
vn -0.8597 0.0000 0.5107
vn 0.5310 0.0000 -0.8474
vn 0.5634 0.0000 -0.8262
vn 0.7159 0.0000 0.6982
vn -0.7159 0.0000 -0.6982
vn -0.7071 0.0000 0.7071
vn -0.6393 0.0000 -0.7690
vn -0.5634 0.0000 -0.8262
vn 0.7846 0.0000 0.6200
vn 0.8395 0.0000 0.5434
vn 0.7071 0.0000 0.7071
vn -0.5310 0.0000 -0.8474
vn 0.8597 0.0000 0.5107
vn -0.8597 0.0000 -0.5107
vn 0.5310 0.0000 0.8474
vn -0.7071 0.0000 -0.7071
vn 0.4912 0.7193 -0.4912
vn 0.3912 0.7196 0.5737
vn 0.4437 0.7199 0.5338
vn -0.5446 0.7199 -0.4304
vn -0.5830 0.7196 -0.3773
vn 0.4970 0.7197 0.4847
vn -0.4970 0.7197 -0.4847
vn 0.5446 0.7199 0.4304
vn -0.4437 0.7199 -0.5338
vn 0.5830 0.7196 0.3773
vn -0.3912 0.7196 -0.5737
vn -0.3689 0.7193 -0.5887
vn 0.5972 0.7193 0.3548
vn -0.5972 0.7193 -0.3548
vn 0.3689 0.7193 0.5887
vn -0.4912 0.7193 -0.4912
vn -0.4437 0.7199 0.5338
vn -0.3912 0.7196 0.5737
vn 0.5830 0.7196 -0.3773
vn 0.5446 0.7199 -0.4304
vn -0.4970 0.7197 0.4847
vn 0.4970 0.7197 -0.4847
vn -0.5446 0.7199 0.4304
vn 0.4437 0.7199 -0.5338
vn -0.5830 0.7196 0.3773
vn 0.3912 0.7196 -0.5737
vn 0.3689 0.7193 -0.5887
vn -0.5972 0.7193 0.3548
vn 0.5972 0.7193 -0.3548
vn -0.3689 0.7193 0.5887
vn 0.4912 0.7193 0.4912
vn -0.4912 0.7193 0.4912
usemtl Atlas
s 1
f 119/1/1 41/2/1 120/3/1
f 111/4/1 8/5/1 2/6/1 1/7/1
f 8/5/1 111/4/1 7/8/1 10/9/1
f 10/9/1 7/8/1 6/10/1 11/11/1
f 11/11/1 6/10/1 5/12/1 12/13/1
f 12/13/1 5/12/1 3/14/1 9/15/1
f 119/1/1 120/3/1 9/15/1 3/14/1
f 119/1/1 133/16/1 41/2/1
f 125/17/1 14/18/1 15/19/1 21/20/1
f 21/20/1 23/21/1 20/22/1 125/17/1
f 23/21/1 24/23/1 19/24/1 20/22/1
f 24/23/1 25/25/1 18/26/1 19/24/1
f 25/25/1 22/27/1 16/28/1 18/26/1
f 119/1/1 16/28/1 22/27/1 133/16/1
f 146/29/1 120/3/1 41/2/1
f 138/30/1 27/31/1 28/32/1 34/33/1
f 34/33/1 36/34/1 33/35/1 138/30/1
f 36/34/1 37/36/1 32/37/1 33/35/1
f 37/36/1 38/38/1 31/39/1 32/37/1
f 38/38/1 35/40/1 29/41/1 31/39/1
f 146/29/1 29/41/1 35/40/1 120/3/1
f 146/29/1 41/2/1 133/16/1
f 151/42/1 49/43/1 43/44/1 42/45/1
f 49/43/1 151/42/1 48/46/1 51/47/1
f 51/47/1 48/46/1 47/48/1 52/49/1
f 52/49/1 47/48/1 46/50/1 53/51/1
f 53/51/1 46/50/1 44/52/1 50/53/1
f 146/29/1 133/16/1 50/53/1 44/52/1
f 55/54/2 54/55/2 56/56/2
f 61/57/2 58/58/2 57/59/2 60/60/2
f 60/60/2 59/61/2 62/62/2 61/57/2
f 59/61/2 63/63/2 64/64/2 62/62/2
f 63/63/2 65/65/2 66/66/2 64/64/2
f 65/65/2 67/67/2 68/68/2 66/66/2
f 55/54/2 68/68/2 67/67/2 54/55/2
f 55/54/2 56/56/2 69/69/2
f 74/70/2 73/71/2 70/72/2 71/73/2
f 73/71/2 74/70/2 75/74/2 72/75/2
f 72/75/2 75/74/2 77/76/2 76/77/2
f 76/77/2 77/76/2 79/78/2 78/79/2
f 78/79/2 79/78/2 81/80/2 80/81/2
f 55/54/2 69/69/2 80/81/2 81/80/2
f 82/82/2 56/56/2 54/55/2
f 87/83/2 86/84/2 83/85/2 84/86/2
f 86/84/2 87/83/2 88/87/2 85/88/2
f 85/88/2 88/87/2 90/89/2 89/90/2
f 89/90/2 90/89/2 92/91/2 91/92/2
f 91/92/2 92/91/2 94/93/2 93/94/2
f 82/82/2 54/55/2 93/94/2 94/93/2
f 82/82/2 69/69/2 56/56/2
f 99/95/2 96/96/2 95/97/2 98/98/2
f 98/98/2 97/99/2 100/100/2 99/95/2
f 97/99/2 101/101/2 102/102/2 100/100/2
f 101/101/2 103/103/2 104/104/2 102/102/2
f 103/103/2 105/105/2 106/106/2 104/104/2
f 82/82/2 106/106/2 105/105/2 69/69/2
f 123/107/3 72/75/3 76/77/4 127/108/4
f 145/109/5 94/93/5 92/91/3 143/110/3
f 128/111/6 77/76/6 75/74/7 126/112/7
f 107/113/8 57/59/8 58/58/8 108/114/8
f 109/115/9 59/61/9 60/60/10 110/116/10
f 39/117/11 82/82/11 94/93/5 145/109/5
f 127/108/4 76/77/4 78/79/12 129/118/12
f 144/119/13 93/94/13 54/55/14 26/120/14
f 130/121/15 79/78/15 77/76/6 128/111/6
f 4/122/16 61/57/16 62/62/17 112/123/17
f 30/124/18 87/83/18 84/86/19 135/125/19
f 134/126/20 83/85/20 86/84/21 137/127/21
f 129/118/12 78/79/12 80/81/18 131/128/18
f 113/129/22 63/63/22 59/61/9 109/115/9
f 132/130/21 81/80/21 79/78/15 130/121/15
f 112/123/17 62/62/17 64/64/23 114/131/23
f 147/132/24 95/97/24 96/96/24 148/133/24
f 149/134/25 97/99/25 98/98/26 150/135/26
f 13/136/20 55/54/20 81/80/21 132/130/21
f 115/137/27 65/65/27 63/63/22 113/129/22
f 131/128/18 80/81/18 69/69/19 40/138/19
f 114/131/23 64/64/23 66/66/25 116/139/25
f 45/140/28 99/95/28 100/100/27 152/141/27
f 17/142/13 74/70/13 71/73/14 122/143/14
f 121/144/11 70/72/11 73/71/5 124/145/5
f 117/146/28 67/67/28 65/65/27 115/137/27
f 153/147/23 101/101/23 97/99/25 149/134/25
f 116/139/25 66/66/25 68/68/26 118/148/26
f 152/141/27 100/100/27 102/102/22 154/149/22
f 135/125/29 84/86/29 83/85/29 134/126/29
f 118/148/26 68/68/26 55/54/30 13/136/30
f 155/150/17 103/103/17 101/101/23 153/147/23
f 137/127/21 86/84/21 85/88/15 136/151/15
f 26/120/31 54/55/31 67/67/28 117/146/28
f 154/149/22 102/102/22 104/104/9 156/152/9
f 108/114/32 58/58/32 61/57/16 4/122/16
f 139/153/12 88/87/12 87/83/18 30/124/18
f 110/116/10 60/60/10 57/59/33 107/113/33
f 157/154/16 105/105/16 103/103/17 155/150/17
f 156/152/9 104/104/9 106/106/10 158/155/10
f 136/151/15 85/88/15 89/90/6 140/156/6
f 141/157/4 90/89/4 88/87/12 139/153/12
f 122/143/34 71/73/34 70/72/34 121/144/34
f 158/155/10 106/106/10 82/82/33 39/117/33
f 124/145/5 73/71/5 72/75/3 123/107/3
f 40/138/32 69/69/32 105/105/16 157/154/16
f 140/156/6 89/90/6 91/92/7 142/158/7
f 148/133/31 96/96/31 99/95/28 45/140/28
f 143/110/3 92/91/3 90/89/4 141/157/4
f 126/112/7 75/74/7 74/70/13 17/142/13
f 150/135/26 98/98/26 95/97/30 147/132/30
f 142/158/7 91/92/7 93/94/13 144/119/13
f 1/7/35 2/6/35 107/113/35 108/114/35
f 8/5/36 10/9/37 109/115/37 110/116/36
f 7/8/38 111/4/39 4/122/39 112/123/38
f 10/9/37 11/11/40 113/129/40 109/115/37
f 6/10/41 7/8/38 112/123/38 114/131/41
f 11/11/40 12/13/42 115/137/42 113/129/40
f 5/12/43 6/10/41 114/131/41 116/139/43
f 12/13/42 9/15/44 117/146/44 115/137/42
f 3/14/45 5/12/43 116/139/43 118/148/45
f 119/1/46 3/14/45 118/148/45 13/136/46
f 9/15/44 120/3/47 26/120/47 117/146/44
f 111/4/39 1/7/48 108/114/48 4/122/39
f 2/6/49 8/5/36 110/116/36 107/113/49
f 15/19/50 14/18/50 122/143/50 121/144/50
f 23/21/51 21/20/52 124/145/52 123/107/51
f 125/17/53 20/22/54 126/112/54 17/142/53
f 24/23/55 23/21/51 123/107/51 127/108/55
f 20/22/54 19/24/56 128/111/56 126/112/54
f 25/25/57 24/23/55 127/108/55 129/118/57
f 19/24/56 18/26/58 130/121/58 128/111/56
f 22/27/59 25/25/57 129/118/57 131/128/59
f 18/26/58 16/28/60 132/130/60 130/121/58
f 16/28/60 119/1/61 13/136/61 132/130/60
f 133/16/62 22/27/59 131/128/59 40/138/62
f 14/18/63 125/17/53 17/142/53 122/143/63
f 21/20/52 15/19/64 121/144/64 124/145/52
f 28/32/65 27/31/65 135/125/65 134/126/65
f 36/34/58 34/33/60 137/127/60 136/151/58
f 138/30/59 33/35/57 139/153/57 30/124/59
f 37/36/56 36/34/58 136/151/58 140/156/56
f 33/35/57 32/37/55 141/157/55 139/153/57
f 38/38/54 37/36/56 140/156/56 142/158/54
f 32/37/55 31/39/51 143/110/51 141/157/55
f 35/40/53 38/38/54 142/158/54 144/119/53
f 31/39/51 29/41/52 145/109/52 143/110/51
f 29/41/52 146/29/64 39/117/64 145/109/52
f 120/3/63 35/40/53 144/119/53 26/120/63
f 27/31/62 138/30/59 30/124/59 135/125/62
f 34/33/60 28/32/61 134/126/61 137/127/60
f 42/45/66 43/44/66 147/132/66 148/133/66
f 49/43/45 51/47/43 149/134/43 150/135/45
f 48/46/42 151/42/44 45/140/44 152/141/42
f 51/47/43 52/49/41 153/147/41 149/134/43
f 47/48/40 48/46/42 152/141/42 154/149/40
f 52/49/41 53/51/38 155/150/38 153/147/41
f 46/50/37 47/48/40 154/149/40 156/152/37
f 53/51/38 50/53/39 157/154/39 155/150/38
f 44/52/36 46/50/37 156/152/37 158/155/36
f 146/29/49 44/52/36 158/155/36 39/117/49
f 50/53/39 133/16/48 40/138/48 157/154/39
f 151/42/44 42/45/47 148/133/47 45/140/44
f 43/44/46 49/43/45 150/135/45 147/132/46
