<svg width="836" height="223" viewBox="0 0 836 223" fill="none" xmlns="http://www.w3.org/2000/svg">
<mask id="path-1-outside-1_107_88" maskUnits="userSpaceOnUse" x="69" y="60" width="698" height="111" fill="black">
<rect fill="white" x="69" y="60" width="698" height="111"/>
<path d="M141.335 156.56C141.335 158.333 140.682 159.873 139.375 161.18C138.162 162.393 136.668 163 134.895 163H95.9748C92.6148 163 89.4882 162.16 86.5948 160.48C83.7948 158.8 81.5548 156.56 79.8748 153.76C78.1948 150.96 77.3548 147.88 77.3548 144.52V86.98C77.3548 83.5267 78.1948 80.4 79.8748 77.6C81.5548 74.8 83.7948 72.56 86.5948 70.88C89.4882 69.2 92.6148 68.36 95.9748 68.36H122.855C126.215 68.36 129.295 69.2 132.095 70.88C134.895 72.56 137.135 74.8 138.815 77.6C140.495 80.4 141.335 83.5267 141.335 86.98V156.56ZM124.675 133.18V86.98C124.675 85.6733 124.068 85.02 122.855 85.02H95.9748C95.5082 85.02 95.0415 85.2067 94.5748 85.58C94.2015 85.9533 94.0148 86.42 94.0148 86.98V144.52C94.0148 144.987 94.2015 145.453 94.5748 145.92C95.0415 146.293 95.5082 146.48 95.9748 146.48H111.235C111.515 146.48 111.702 146.34 111.795 146.06C111.982 145.687 111.935 145.36 111.655 145.08L104.795 138.22C103.582 137.007 102.975 135.513 102.975 133.74V128.42C102.975 127.02 103.348 125.807 104.095 124.78C104.842 123.66 105.822 122.867 107.035 122.4C108.248 121.933 109.462 121.84 110.675 122.12C111.982 122.307 113.055 122.913 113.895 123.94L123.415 133.74C123.695 133.927 123.975 133.973 124.255 133.88C124.535 133.787 124.675 133.553 124.675 133.18ZM227.584 144.52C227.584 147.88 226.744 150.96 225.064 153.76C223.384 156.56 221.144 158.8 218.344 160.48C215.544 162.16 212.464 163 209.104 163H183.904C180.544 163 177.417 162.16 174.524 160.48C171.724 158.8 169.484 156.56 167.804 153.76C166.124 150.96 165.284 147.88 165.284 144.52V74.8C165.284 72.9333 165.89 71.3933 167.104 70.18C168.41 68.9667 169.95 68.36 171.724 68.36H175.644C177.417 68.36 178.91 68.9667 180.124 70.18C181.43 71.3933 182.084 72.9333 182.084 74.8V144.52C182.084 144.987 182.27 145.453 182.644 145.92C183.017 146.293 183.437 146.48 183.904 146.48H209.104C209.57 146.48 209.99 146.293 210.364 145.92C210.737 145.453 210.924 144.987 210.924 144.52V74.8C210.924 72.9333 211.53 71.3933 212.744 70.18C214.05 68.9667 215.59 68.36 217.364 68.36H221.144C223.01 68.36 224.55 68.9667 225.764 70.18C226.977 71.3933 227.584 72.9333 227.584 74.8V144.52ZM312.335 156.56C312.335 158.333 311.682 159.873 310.375 161.18C309.162 162.393 307.715 163 306.035 163H257.875C256.195 163 254.702 162.393 253.395 161.18C252.182 159.873 251.575 158.333 251.575 156.56V74.8C251.575 72.9333 252.182 71.3933 253.395 70.18C254.702 68.9667 256.195 68.36 257.875 68.36H306.035C307.715 68.36 309.162 68.9667 310.375 70.18C311.682 71.3933 312.335 72.9333 312.335 74.8V78.58C312.335 80.3533 311.682 81.8933 310.375 83.2C309.162 84.4133 307.715 85.02 306.035 85.02H269.915C268.795 85.02 268.235 85.6267 268.235 86.84V105.46C268.235 106.767 268.795 107.42 269.915 107.42H300.995C302.862 107.42 304.402 108.027 305.615 109.24C306.828 110.453 307.435 111.947 307.435 113.72V117.64C307.435 119.413 306.828 120.953 305.615 122.26C304.402 123.473 302.862 124.08 300.995 124.08H269.915C268.795 124.08 268.235 124.64 268.235 125.76V144.66C268.235 145.873 268.795 146.48 269.915 146.48H306.035C307.715 146.48 309.162 147.087 310.375 148.3C311.682 149.513 312.335 151.053 312.335 152.92V156.56ZM400.209 144.52C400.209 147.88 399.369 150.96 397.689 153.76C396.009 156.56 393.769 158.8 390.969 160.48C388.169 162.16 385.089 163 381.729 163H354.849C351.489 163 348.362 162.16 345.469 160.48C342.669 158.8 340.429 156.56 338.749 153.76C337.069 150.96 336.229 147.88 336.229 144.52V140.32C336.229 138.547 336.836 137.053 338.049 135.84C339.356 134.533 340.896 133.88 342.669 133.88H346.589C348.269 133.88 349.716 134.533 350.929 135.84C352.236 137.053 352.889 138.547 352.889 140.32V144.52C352.889 144.987 353.076 145.453 353.449 145.92C353.916 146.293 354.382 146.48 354.849 146.48H381.729C382.196 146.48 382.616 146.293 382.989 145.92C383.362 145.453 383.549 144.987 383.549 144.52V131.78C383.549 130.753 383.082 130.1 382.149 129.82L348.549 117.22C344.816 115.913 341.829 113.627 339.589 110.36C337.349 107.093 336.229 103.5 336.229 99.58V86.98C336.229 83.5267 337.069 80.4 338.749 77.6C340.429 74.8 342.669 72.56 345.469 70.88C348.362 69.2 351.489 68.36 354.849 68.36H381.729C385.089 68.36 388.169 69.2 390.969 70.88C393.769 72.56 396.009 74.8 397.689 77.6C399.369 80.4 400.209 83.5267 400.209 86.98V90.76C400.209 92.5333 399.556 94.0267 398.249 95.24C397.036 96.4533 395.542 97.06 393.769 97.06H389.989C388.216 97.06 386.676 96.4533 385.369 95.24C384.156 94.0267 383.549 92.5333 383.549 90.76V86.98C383.549 85.6733 382.942 85.02 381.729 85.02H354.849C354.382 85.02 353.916 85.2067 353.449 85.58C353.076 85.9533 352.889 86.42 352.889 86.98V99.58C352.889 100.7 353.356 101.4 354.289 101.68L388.029 114.28C391.669 115.587 394.609 117.873 396.849 121.14C399.089 124.407 400.209 127.953 400.209 131.78V144.52ZM486.598 78.58C486.598 80.3533 485.991 81.8933 484.778 83.2C483.564 84.4133 482.024 85.02 480.158 85.02H465.458C464.244 85.02 463.638 85.6267 463.638 86.84V156.56C463.638 158.333 462.984 159.873 461.678 161.18C460.464 162.393 458.971 163 457.198 163H453.558C451.784 163 450.244 162.393 448.938 161.18C447.724 159.873 447.118 158.333 447.118 156.56V86.84C447.118 85.6267 446.511 85.02 445.298 85.02H430.458C428.684 85.02 427.144 84.4133 425.838 83.2C424.624 81.8933 424.018 80.3533 424.018 78.58V74.8C424.018 72.9333 424.624 71.3933 425.838 70.18C427.144 68.9667 428.684 68.36 430.458 68.36H480.158C482.024 68.36 483.564 68.9667 484.778 70.18C485.991 71.3933 486.598 72.9333 486.598 74.8V78.58ZM574.569 144.52C574.569 147.88 573.729 150.96 572.049 153.76C570.369 156.56 568.129 158.8 565.329 160.48C562.529 162.16 559.449 163 556.089 163H529.209C525.849 163 522.723 162.16 519.829 160.48C517.029 158.8 514.789 156.56 513.109 153.76C511.429 150.96 510.589 147.88 510.589 144.52V86.98C510.589 83.5267 511.429 80.4 513.109 77.6C514.789 74.8 517.029 72.56 519.829 70.88C522.723 69.2 525.849 68.36 529.209 68.36H556.089C559.449 68.36 562.529 69.2 565.329 70.88C568.129 72.56 570.369 74.8 572.049 77.6C573.729 80.4 574.569 83.5267 574.569 86.98V144.52ZM557.909 144.52V86.98C557.909 85.6733 557.303 85.02 556.089 85.02H529.209C528.743 85.02 528.276 85.2067 527.809 85.58C527.436 85.9533 527.249 86.42 527.249 86.98V144.52C527.249 144.987 527.436 145.453 527.809 145.92C528.276 146.293 528.743 146.48 529.209 146.48H556.089C556.556 146.48 556.976 146.293 557.349 145.92C557.723 145.453 557.909 144.987 557.909 144.52ZM661.938 154.18C662.871 156.327 662.731 158.287 661.518 160.06C660.118 162.02 658.345 163 656.198 163H651.998C650.785 163 649.571 162.627 648.358 161.88C647.238 161.133 646.445 160.2 645.978 159.08L632.818 127.58C632.351 126.46 631.511 125.9 630.298 125.9H617.278C616.065 125.9 615.458 126.507 615.458 127.72V156.56C615.458 158.333 614.805 159.873 613.498 161.18C612.285 162.393 610.791 163 609.018 163H605.098C603.325 163 601.831 162.393 600.618 161.18C599.498 159.873 598.938 158.333 598.938 156.56V74.8C598.938 72.9333 599.498 71.3933 600.618 70.18C601.831 68.9667 603.325 68.36 605.098 68.36H643.038C646.398 68.36 649.478 69.2 652.278 70.88C655.078 72.56 657.318 74.8 658.998 77.6C660.678 80.4 661.518 83.5267 661.518 86.98V107.42C661.518 111.06 660.538 114.373 658.578 117.36C656.711 120.253 654.238 122.493 651.158 124.08C650.785 124.173 650.505 124.5 650.318 125.06C650.131 125.527 650.178 125.993 650.458 126.46L661.938 154.18ZM644.858 107.42V86.98C644.858 85.6733 644.251 85.02 643.038 85.02H617.278C616.065 85.02 615.458 85.6267 615.458 86.84V107.42C615.458 108.633 616.065 109.24 617.278 109.24H643.038C644.251 109.24 644.858 108.633 644.858 107.42ZM757.987 71.58C759.107 73.7267 759.06 75.92 757.847 78.16L731.667 120.72C731.293 121.187 731.107 121.98 731.107 123.1V156.56C731.107 158.333 730.453 159.873 729.147 161.18C727.933 162.393 726.44 163 724.667 163H720.747C718.973 163 717.433 162.393 716.127 161.18C714.913 159.873 714.307 158.333 714.307 156.56V122.96C714.307 121.933 714.073 121.187 713.607 120.72L687.567 78.16C686.353 75.8267 686.307 73.68 687.427 71.72C688.64 69.48 690.507 68.36 693.027 68.36H697.507C700.027 68.36 701.893 69.3867 703.107 71.44C704.133 73.0267 705.673 75.5467 707.727 79C709.78 82.4533 712.067 86.2333 714.587 90.34C717.107 94.3533 719.487 98.18 721.727 101.82C721.913 102.193 722.193 102.38 722.567 102.38C723.033 102.38 723.407 102.193 723.687 101.82C726.207 97.7133 728.68 93.7 731.107 89.78C733.533 85.7667 735.727 82.1733 737.687 79C739.74 75.7333 741.28 73.2133 742.307 71.44C743.52 69.3867 745.34 68.36 747.767 68.36H752.247C754.86 68.36 756.773 69.4333 757.987 71.58Z"/>
</mask>
<path d="M141.335 156.56C141.335 158.333 140.682 159.873 139.375 161.18C138.162 162.393 136.668 163 134.895 163H95.9748C92.6148 163 89.4882 162.16 86.5948 160.48C83.7948 158.8 81.5548 156.56 79.8748 153.76C78.1948 150.96 77.3548 147.88 77.3548 144.52V86.98C77.3548 83.5267 78.1948 80.4 79.8748 77.6C81.5548 74.8 83.7948 72.56 86.5948 70.88C89.4882 69.2 92.6148 68.36 95.9748 68.36H122.855C126.215 68.36 129.295 69.2 132.095 70.88C134.895 72.56 137.135 74.8 138.815 77.6C140.495 80.4 141.335 83.5267 141.335 86.98V156.56ZM124.675 133.18V86.98C124.675 85.6733 124.068 85.02 122.855 85.02H95.9748C95.5082 85.02 95.0415 85.2067 94.5748 85.58C94.2015 85.9533 94.0148 86.42 94.0148 86.98V144.52C94.0148 144.987 94.2015 145.453 94.5748 145.92C95.0415 146.293 95.5082 146.48 95.9748 146.48H111.235C111.515 146.48 111.702 146.34 111.795 146.06C111.982 145.687 111.935 145.36 111.655 145.08L104.795 138.22C103.582 137.007 102.975 135.513 102.975 133.74V128.42C102.975 127.02 103.348 125.807 104.095 124.78C104.842 123.66 105.822 122.867 107.035 122.4C108.248 121.933 109.462 121.84 110.675 122.12C111.982 122.307 113.055 122.913 113.895 123.94L123.415 133.74C123.695 133.927 123.975 133.973 124.255 133.88C124.535 133.787 124.675 133.553 124.675 133.18ZM227.584 144.52C227.584 147.88 226.744 150.96 225.064 153.76C223.384 156.56 221.144 158.8 218.344 160.48C215.544 162.16 212.464 163 209.104 163H183.904C180.544 163 177.417 162.16 174.524 160.48C171.724 158.8 169.484 156.56 167.804 153.76C166.124 150.96 165.284 147.88 165.284 144.52V74.8C165.284 72.9333 165.89 71.3933 167.104 70.18C168.41 68.9667 169.95 68.36 171.724 68.36H175.644C177.417 68.36 178.91 68.9667 180.124 70.18C181.43 71.3933 182.084 72.9333 182.084 74.8V144.52C182.084 144.987 182.27 145.453 182.644 145.92C183.017 146.293 183.437 146.48 183.904 146.48H209.104C209.57 146.48 209.99 146.293 210.364 145.92C210.737 145.453 210.924 144.987 210.924 144.52V74.8C210.924 72.9333 211.53 71.3933 212.744 70.18C214.05 68.9667 215.59 68.36 217.364 68.36H221.144C223.01 68.36 224.55 68.9667 225.764 70.18C226.977 71.3933 227.584 72.9333 227.584 74.8V144.52ZM312.335 156.56C312.335 158.333 311.682 159.873 310.375 161.18C309.162 162.393 307.715 163 306.035 163H257.875C256.195 163 254.702 162.393 253.395 161.18C252.182 159.873 251.575 158.333 251.575 156.56V74.8C251.575 72.9333 252.182 71.3933 253.395 70.18C254.702 68.9667 256.195 68.36 257.875 68.36H306.035C307.715 68.36 309.162 68.9667 310.375 70.18C311.682 71.3933 312.335 72.9333 312.335 74.8V78.58C312.335 80.3533 311.682 81.8933 310.375 83.2C309.162 84.4133 307.715 85.02 306.035 85.02H269.915C268.795 85.02 268.235 85.6267 268.235 86.84V105.46C268.235 106.767 268.795 107.42 269.915 107.42H300.995C302.862 107.42 304.402 108.027 305.615 109.24C306.828 110.453 307.435 111.947 307.435 113.72V117.64C307.435 119.413 306.828 120.953 305.615 122.26C304.402 123.473 302.862 124.08 300.995 124.08H269.915C268.795 124.08 268.235 124.64 268.235 125.76V144.66C268.235 145.873 268.795 146.48 269.915 146.48H306.035C307.715 146.48 309.162 147.087 310.375 148.3C311.682 149.513 312.335 151.053 312.335 152.92V156.56ZM400.209 144.52C400.209 147.88 399.369 150.96 397.689 153.76C396.009 156.56 393.769 158.8 390.969 160.48C388.169 162.16 385.089 163 381.729 163H354.849C351.489 163 348.362 162.16 345.469 160.48C342.669 158.8 340.429 156.56 338.749 153.76C337.069 150.96 336.229 147.88 336.229 144.52V140.32C336.229 138.547 336.836 137.053 338.049 135.84C339.356 134.533 340.896 133.88 342.669 133.88H346.589C348.269 133.88 349.716 134.533 350.929 135.84C352.236 137.053 352.889 138.547 352.889 140.32V144.52C352.889 144.987 353.076 145.453 353.449 145.92C353.916 146.293 354.382 146.48 354.849 146.48H381.729C382.196 146.48 382.616 146.293 382.989 145.92C383.362 145.453 383.549 144.987 383.549 144.52V131.78C383.549 130.753 383.082 130.1 382.149 129.82L348.549 117.22C344.816 115.913 341.829 113.627 339.589 110.36C337.349 107.093 336.229 103.5 336.229 99.58V86.98C336.229 83.5267 337.069 80.4 338.749 77.6C340.429 74.8 342.669 72.56 345.469 70.88C348.362 69.2 351.489 68.36 354.849 68.36H381.729C385.089 68.36 388.169 69.2 390.969 70.88C393.769 72.56 396.009 74.8 397.689 77.6C399.369 80.4 400.209 83.5267 400.209 86.98V90.76C400.209 92.5333 399.556 94.0267 398.249 95.24C397.036 96.4533 395.542 97.06 393.769 97.06H389.989C388.216 97.06 386.676 96.4533 385.369 95.24C384.156 94.0267 383.549 92.5333 383.549 90.76V86.98C383.549 85.6733 382.942 85.02 381.729 85.02H354.849C354.382 85.02 353.916 85.2067 353.449 85.58C353.076 85.9533 352.889 86.42 352.889 86.98V99.58C352.889 100.7 353.356 101.4 354.289 101.68L388.029 114.28C391.669 115.587 394.609 117.873 396.849 121.14C399.089 124.407 400.209 127.953 400.209 131.78V144.52ZM486.598 78.58C486.598 80.3533 485.991 81.8933 484.778 83.2C483.564 84.4133 482.024 85.02 480.158 85.02H465.458C464.244 85.02 463.638 85.6267 463.638 86.84V156.56C463.638 158.333 462.984 159.873 461.678 161.18C460.464 162.393 458.971 163 457.198 163H453.558C451.784 163 450.244 162.393 448.938 161.18C447.724 159.873 447.118 158.333 447.118 156.56V86.84C447.118 85.6267 446.511 85.02 445.298 85.02H430.458C428.684 85.02 427.144 84.4133 425.838 83.2C424.624 81.8933 424.018 80.3533 424.018 78.58V74.8C424.018 72.9333 424.624 71.3933 425.838 70.18C427.144 68.9667 428.684 68.36 430.458 68.36H480.158C482.024 68.36 483.564 68.9667 484.778 70.18C485.991 71.3933 486.598 72.9333 486.598 74.8V78.58ZM574.569 144.52C574.569 147.88 573.729 150.96 572.049 153.76C570.369 156.56 568.129 158.8 565.329 160.48C562.529 162.16 559.449 163 556.089 163H529.209C525.849 163 522.723 162.16 519.829 160.48C517.029 158.8 514.789 156.56 513.109 153.76C511.429 150.96 510.589 147.88 510.589 144.52V86.98C510.589 83.5267 511.429 80.4 513.109 77.6C514.789 74.8 517.029 72.56 519.829 70.88C522.723 69.2 525.849 68.36 529.209 68.36H556.089C559.449 68.36 562.529 69.2 565.329 70.88C568.129 72.56 570.369 74.8 572.049 77.6C573.729 80.4 574.569 83.5267 574.569 86.98V144.52ZM557.909 144.52V86.98C557.909 85.6733 557.303 85.02 556.089 85.02H529.209C528.743 85.02 528.276 85.2067 527.809 85.58C527.436 85.9533 527.249 86.42 527.249 86.98V144.52C527.249 144.987 527.436 145.453 527.809 145.92C528.276 146.293 528.743 146.48 529.209 146.48H556.089C556.556 146.48 556.976 146.293 557.349 145.92C557.723 145.453 557.909 144.987 557.909 144.52ZM661.938 154.18C662.871 156.327 662.731 158.287 661.518 160.06C660.118 162.02 658.345 163 656.198 163H651.998C650.785 163 649.571 162.627 648.358 161.88C647.238 161.133 646.445 160.2 645.978 159.08L632.818 127.58C632.351 126.46 631.511 125.9 630.298 125.9H617.278C616.065 125.9 615.458 126.507 615.458 127.72V156.56C615.458 158.333 614.805 159.873 613.498 161.18C612.285 162.393 610.791 163 609.018 163H605.098C603.325 163 601.831 162.393 600.618 161.18C599.498 159.873 598.938 158.333 598.938 156.56V74.8C598.938 72.9333 599.498 71.3933 600.618 70.18C601.831 68.9667 603.325 68.36 605.098 68.36H643.038C646.398 68.36 649.478 69.2 652.278 70.88C655.078 72.56 657.318 74.8 658.998 77.6C660.678 80.4 661.518 83.5267 661.518 86.98V107.42C661.518 111.06 660.538 114.373 658.578 117.36C656.711 120.253 654.238 122.493 651.158 124.08C650.785 124.173 650.505 124.5 650.318 125.06C650.131 125.527 650.178 125.993 650.458 126.46L661.938 154.18ZM644.858 107.42V86.98C644.858 85.6733 644.251 85.02 643.038 85.02H617.278C616.065 85.02 615.458 85.6267 615.458 86.84V107.42C615.458 108.633 616.065 109.24 617.278 109.24H643.038C644.251 109.24 644.858 108.633 644.858 107.42ZM757.987 71.58C759.107 73.7267 759.06 75.92 757.847 78.16L731.667 120.72C731.293 121.187 731.107 121.98 731.107 123.1V156.56C731.107 158.333 730.453 159.873 729.147 161.18C727.933 162.393 726.44 163 724.667 163H720.747C718.973 163 717.433 162.393 716.127 161.18C714.913 159.873 714.307 158.333 714.307 156.56V122.96C714.307 121.933 714.073 121.187 713.607 120.72L687.567 78.16C686.353 75.8267 686.307 73.68 687.427 71.72C688.64 69.48 690.507 68.36 693.027 68.36H697.507C700.027 68.36 701.893 69.3867 703.107 71.44C704.133 73.0267 705.673 75.5467 707.727 79C709.78 82.4533 712.067 86.2333 714.587 90.34C717.107 94.3533 719.487 98.18 721.727 101.82C721.913 102.193 722.193 102.38 722.567 102.38C723.033 102.38 723.407 102.193 723.687 101.82C726.207 97.7133 728.68 93.7 731.107 89.78C733.533 85.7667 735.727 82.1733 737.687 79C739.74 75.7333 741.28 73.2133 742.307 71.44C743.52 69.3867 745.34 68.36 747.767 68.36H752.247C754.86 68.36 756.773 69.4333 757.987 71.58Z" fill="white"/>
<path d="M139.375 161.18L145.032 166.837L145.032 166.837L139.375 161.18ZM86.5948 160.48L82.4789 167.34L82.5281 167.369L82.5778 167.398L86.5948 160.48ZM79.8748 153.76L73.0149 157.876L73.0149 157.876L79.8748 153.76ZM79.8748 77.6L86.7348 81.716L86.7348 81.716L79.8748 77.6ZM86.5948 70.88L82.5778 63.9617L82.5281 63.9905L82.4789 64.02L86.5948 70.88ZM138.815 77.6L131.955 81.716L131.955 81.716L138.815 77.6ZM94.5748 85.58L89.5773 79.333L89.2313 79.6098L88.918 79.9232L94.5748 85.58ZM94.5748 145.92L88.3279 150.918L88.8832 151.612L89.5773 152.167L94.5748 145.92ZM111.795 146.06L104.639 142.482L104.385 142.991L104.205 143.53L111.795 146.06ZM111.655 145.08L117.312 139.423L117.312 139.423L111.655 145.08ZM104.095 124.78L110.565 129.485L110.661 129.353L110.751 129.218L104.095 124.78ZM107.035 122.4L109.907 129.867L109.907 129.867L107.035 122.4ZM110.675 122.12L108.876 129.915L109.207 129.992L109.543 130.04L110.675 122.12ZM113.895 123.94L107.703 129.006L107.919 129.27L108.157 129.514L113.895 123.94ZM123.415 133.74L117.677 139.314L118.269 139.925L118.977 140.396L123.415 133.74ZM124.255 133.88L126.785 141.469L126.785 141.469L124.255 133.88ZM133.335 156.56C133.335 156.439 133.363 156.197 133.48 155.921C133.595 155.65 133.721 155.52 133.718 155.523L145.032 166.837C147.768 164.1 149.335 160.553 149.335 156.56H133.335ZM133.718 155.523C133.818 155.423 134.027 155.258 134.334 155.133C134.635 155.011 134.853 155 134.895 155V171C138.711 171 142.263 169.606 145.032 166.837L133.718 155.523ZM134.895 155H95.9748V171H134.895V155ZM95.9748 155C94.0195 155 92.2796 154.53 90.6119 153.562L82.5778 167.398C86.6968 169.79 91.2102 171 95.9748 171V155ZM90.7108 153.62C89.0368 152.616 87.7392 151.318 86.7348 149.644L73.0149 157.876C75.3705 161.802 78.5529 164.984 82.4789 167.34L90.7108 153.62ZM86.7348 149.644C85.8232 148.125 85.3548 146.474 85.3548 144.52H69.3548C69.3548 149.286 70.5665 153.795 73.0149 157.876L86.7348 149.644ZM85.3548 144.52V86.98H69.3548V144.52H85.3548ZM85.3548 86.98C85.3548 84.8896 85.8443 83.2001 86.7348 81.716L73.0149 73.484C70.5454 77.5999 69.3548 82.1637 69.3548 86.98H85.3548ZM86.7348 81.716C87.7392 80.042 89.0368 78.7443 90.7108 77.7399L82.4789 64.02C78.5529 66.3756 75.3705 69.558 73.0149 73.484L86.7348 81.716ZM90.6119 77.7983C92.2796 76.83 94.0195 76.36 95.9748 76.36V60.36C91.2102 60.36 86.6968 61.57 82.5778 63.9617L90.6119 77.7983ZM95.9748 76.36H122.855V60.36H95.9748V76.36ZM122.855 76.36C124.809 76.36 126.459 76.8283 127.979 77.7399L136.211 64.02C132.13 61.5717 127.621 60.36 122.855 60.36V76.36ZM127.979 77.7399C129.653 78.7443 130.95 80.042 131.955 81.716L145.675 73.484C143.319 69.558 140.137 66.3756 136.211 64.02L127.979 77.7399ZM131.955 81.716C132.845 83.2001 133.335 84.8896 133.335 86.98H149.335C149.335 82.1637 148.144 77.5999 145.675 73.484L131.955 81.716ZM133.335 86.98V156.56H149.335V86.98H133.335ZM132.675 133.18V86.98H116.675V133.18H132.675ZM132.675 86.98C132.675 85.2347 132.282 82.4352 130.082 80.0664C127.779 77.5857 124.853 77.02 122.855 77.02V93.02C122.07 93.02 120.054 92.7809 118.357 90.9536C116.765 89.2381 116.675 87.4186 116.675 86.98H132.675ZM122.855 77.02H95.9748V93.02H122.855V77.02ZM95.9748 77.02C93.2341 77.02 91.0584 78.1481 89.5773 79.333L99.5724 91.8269C99.0246 92.2652 97.7822 93.02 95.9748 93.02V77.02ZM88.918 79.9232C86.9463 81.8948 86.0148 84.4411 86.0148 86.98H102.015C102.015 87.6017 101.908 88.3674 101.583 89.1811C101.253 90.0041 100.772 90.6968 100.232 91.2368L88.918 79.9232ZM86.0148 86.98V144.52H102.015V86.98H86.0148ZM86.0148 144.52C86.0148 147.261 87.143 149.436 88.3279 150.918L100.822 140.922C101.26 141.47 102.015 142.713 102.015 144.52H86.0148ZM89.5773 152.167C91.0584 153.352 93.2341 154.48 95.9748 154.48V138.48C97.7822 138.48 99.0246 139.235 99.5724 139.673L89.5773 152.167ZM95.9748 154.48H111.235V138.48H95.9748V154.48ZM111.235 154.48C112.75 154.48 114.647 154.079 116.385 152.775C118.087 151.498 118.96 149.864 119.384 148.59L104.205 143.53C104.537 142.536 105.269 141.112 106.785 139.975C108.336 138.811 110 138.48 111.235 138.48V154.48ZM118.95 149.638C119.578 148.382 120.127 146.558 119.819 144.404C119.505 142.205 118.424 140.535 117.312 139.423L105.998 150.737C105.166 149.905 104.248 148.538 103.98 146.666C103.719 144.839 104.198 143.365 104.639 142.482L118.95 149.638ZM117.312 139.423L110.452 132.563L99.138 143.877L105.998 150.737L117.312 139.423ZM110.452 132.563C110.551 132.663 110.717 132.872 110.842 133.179C110.964 133.48 110.975 133.698 110.975 133.74H94.9748C94.9748 137.556 96.3692 141.108 99.138 143.877L110.452 132.563ZM110.975 133.74V128.42H94.9748V133.74H110.975ZM110.975 128.42C110.975 128.436 110.972 128.583 110.901 128.813C110.828 129.05 110.711 129.285 110.565 129.485L97.625 120.075C95.7815 122.609 94.9748 125.512 94.9748 128.42H110.975ZM110.751 129.218C110.707 129.284 110.602 129.418 110.423 129.563C110.243 129.709 110.057 129.809 109.907 129.867L104.163 114.933C101.348 116.016 99.0683 117.898 97.4384 120.342L110.751 129.218ZM109.907 129.867C109.839 129.893 109.686 129.94 109.468 129.956C109.248 129.973 109.041 129.953 108.876 129.915L112.474 114.325C109.635 113.67 106.796 113.92 104.163 114.933L109.907 129.867ZM109.543 130.04C109.281 130.002 108.914 129.9 108.523 129.679C108.134 129.459 107.863 129.201 107.703 129.006L120.086 118.874C117.984 116.304 115.109 114.672 111.806 114.2L109.543 130.04ZM108.157 129.514L117.677 139.314L129.153 128.166L119.633 118.366L108.157 129.514ZM118.977 140.396C120.985 141.735 123.814 142.46 126.785 141.469L121.725 126.291C122.772 125.942 123.951 125.824 125.15 126.024C126.314 126.218 127.223 126.664 127.852 127.084L118.977 140.396ZM126.785 141.469C128.571 140.874 130.291 139.649 131.43 137.751C132.474 136.011 132.675 134.299 132.675 133.18H116.675C116.675 132.435 116.806 131.025 117.71 129.519C118.709 127.855 120.219 126.793 121.725 126.291L126.785 141.469ZM225.064 153.76L218.204 149.644L218.204 149.644L225.064 153.76ZM174.524 160.48L170.408 167.34L170.457 167.369L170.507 167.398L174.524 160.48ZM167.804 153.76L160.944 157.876L160.944 157.876L167.804 153.76ZM167.104 70.18L161.66 64.3176L161.551 64.4184L161.447 64.5231L167.104 70.18ZM180.124 70.18L174.467 75.8368L174.571 75.9416L174.68 76.0423L180.124 70.18ZM182.644 145.92L176.397 150.918L176.673 151.264L176.987 151.577L182.644 145.92ZM210.364 145.92L216.02 151.577L216.334 151.264L216.611 150.918L210.364 145.92ZM212.744 70.18L207.3 64.3176L207.191 64.4184L207.087 64.5231L212.744 70.18ZM225.764 70.18L231.42 64.5231L231.42 64.5231L225.764 70.18ZM219.584 144.52C219.584 146.474 219.115 148.125 218.204 149.644L231.924 157.876C234.372 153.795 235.584 149.286 235.584 144.52H219.584ZM218.204 149.644C217.199 151.318 215.902 152.616 214.228 153.62L222.46 167.34C226.386 164.984 229.568 161.802 231.924 157.876L218.204 149.644ZM214.228 153.62C212.708 154.532 211.058 155 209.104 155V171C213.869 171 218.379 169.788 222.46 167.34L214.228 153.62ZM209.104 155H183.904V171H209.104V155ZM183.904 155C181.948 155 180.208 154.53 178.541 153.562L170.507 167.398C174.626 169.79 179.139 171 183.904 171V155ZM178.64 153.62C176.966 152.616 175.668 151.318 174.664 149.644L160.944 157.876C163.299 161.802 166.482 164.984 170.408 167.34L178.64 153.62ZM174.664 149.644C173.752 148.125 173.284 146.474 173.284 144.52H157.284C157.284 149.286 158.495 153.795 160.944 157.876L174.664 149.644ZM173.284 144.52V74.8H157.284V144.52H173.284ZM173.284 74.8C173.284 74.7428 173.29 74.9017 173.182 75.1772C173.068 75.466 172.901 75.6966 172.76 75.8368L161.447 64.5231C158.594 67.376 157.284 71.017 157.284 74.8H173.284ZM172.547 76.0423C172.526 76.0618 172.399 76.1684 172.171 76.2583C171.942 76.3484 171.768 76.36 171.724 76.36V60.36C167.919 60.36 164.437 61.7387 161.66 64.3176L172.547 76.0423ZM171.724 76.36H175.644V60.36H171.724V76.36ZM175.644 76.36C175.602 76.36 175.384 76.3491 175.083 76.2267C174.776 76.1022 174.566 75.9366 174.467 75.8368L185.78 64.5231C183.012 61.7543 179.459 60.36 175.644 60.36V76.36ZM174.68 76.0423C174.563 75.9333 174.371 75.7046 174.229 75.3694C174.09 75.0426 174.084 74.8157 174.084 74.8H190.084C190.084 70.8262 188.588 67.1228 185.567 64.3176L174.68 76.0423ZM174.084 74.8V144.52H190.084V74.8H174.084ZM174.084 144.52C174.084 147.261 175.212 149.436 176.397 150.918L188.891 140.922C189.329 141.47 190.084 142.713 190.084 144.52H174.084ZM176.987 151.577C178.646 153.236 181.03 154.48 183.904 154.48V138.48C184.772 138.48 185.659 138.661 186.488 139.03C187.298 139.39 187.895 139.858 188.3 140.263L176.987 151.577ZM183.904 154.48H209.104V138.48H183.904V154.48ZM209.104 154.48C211.978 154.48 214.362 153.236 216.02 151.577L204.707 140.263C205.112 139.858 205.709 139.39 206.519 139.03C207.348 138.661 208.235 138.48 209.104 138.48V154.48ZM216.611 150.918C217.795 149.436 218.924 147.261 218.924 144.52H202.924C202.924 142.713 203.678 141.47 204.117 140.922L216.611 150.918ZM218.924 144.52V74.8H202.924V144.52H218.924ZM218.924 74.8C218.924 74.7428 218.93 74.9017 218.822 75.1772C218.708 75.466 218.541 75.6966 218.4 75.8368L207.087 64.5231C204.234 67.3761 202.924 71.017 202.924 74.8H218.924ZM218.187 76.0423C218.166 76.0618 218.039 76.1684 217.811 76.2583C217.582 76.3484 217.408 76.36 217.364 76.36V60.36C213.559 60.36 210.077 61.7387 207.3 64.3176L218.187 76.0423ZM217.364 76.36H221.144V60.36H217.364V76.36ZM221.144 76.36C221.201 76.36 221.042 76.3668 220.766 76.2583C220.478 76.1445 220.247 75.9771 220.107 75.8368L231.42 64.5231C228.568 61.6702 224.927 60.36 221.144 60.36V76.36ZM220.107 75.8368C219.966 75.6966 219.799 75.466 219.685 75.1772C219.577 74.9017 219.584 74.7428 219.584 74.8H235.584C235.584 71.017 234.273 67.3761 231.42 64.5231L220.107 75.8368ZM219.584 74.8V144.52H235.584V74.8H219.584ZM310.375 161.18L304.718 155.523L304.718 155.523L310.375 161.18ZM253.395 161.18L247.533 166.624L247.734 166.841L247.951 167.042L253.395 161.18ZM253.395 70.18L247.951 64.3176L247.843 64.4184L247.738 64.5231L253.395 70.18ZM310.375 70.18L304.718 75.8368L304.823 75.9416L304.931 76.0423L310.375 70.18ZM310.375 83.2L304.718 77.5431L304.718 77.5431L310.375 83.2ZM305.615 122.26L311.272 127.917L311.377 127.812L311.477 127.704L305.615 122.26ZM310.375 148.3L304.718 153.957L304.823 154.062L304.931 154.162L310.375 148.3ZM304.335 156.56C304.335 156.439 304.363 156.197 304.48 155.921C304.595 155.65 304.721 155.52 304.718 155.523L316.032 166.837C318.768 164.1 320.335 160.553 320.335 156.56H304.335ZM304.718 155.523C304.777 155.465 304.965 155.302 305.286 155.167C305.611 155.031 305.889 155 306.035 155V171C309.887 171 313.354 169.515 316.032 166.837L304.718 155.523ZM306.035 155H257.875V171H306.035V155ZM257.875 155C258.023 155 258.256 155.032 258.506 155.133C258.748 155.232 258.857 155.335 258.839 155.318L247.951 167.042C250.638 169.537 254.044 171 257.875 171V155ZM259.257 155.736C259.277 155.757 259.383 155.885 259.473 156.113C259.563 156.342 259.575 156.515 259.575 156.56H243.575C243.575 160.365 244.954 163.846 247.533 166.624L259.257 155.736ZM259.575 156.56V74.8H243.575V156.56H259.575ZM259.575 74.8C259.575 74.7428 259.582 74.9017 259.473 75.1772C259.359 75.466 259.192 75.6966 259.052 75.8368L247.738 64.5231C244.885 67.376 243.575 71.017 243.575 74.8H259.575ZM258.839 76.0423C258.857 76.0253 258.748 76.1284 258.506 76.2267C258.256 76.3283 258.023 76.36 257.875 76.36V60.36C254.044 60.36 250.638 61.8228 247.951 64.3176L258.839 76.0423ZM257.875 76.36H306.035V60.36H257.875V76.36ZM306.035 76.36C305.889 76.36 305.611 76.3286 305.286 76.1925C304.965 76.0579 304.777 75.8955 304.718 75.8368L316.032 64.5231C313.354 61.8455 309.887 60.36 306.035 60.36V76.36ZM304.931 76.0423C304.814 75.9333 304.623 75.7046 304.48 75.3694C304.342 75.0426 304.335 74.8157 304.335 74.8H320.335C320.335 70.8262 318.84 67.1228 315.819 64.3176L304.931 76.0423ZM304.335 74.8V78.58H320.335V74.8H304.335ZM304.335 78.58C304.335 78.4586 304.363 78.2174 304.48 77.9406C304.595 77.6703 304.721 77.5403 304.718 77.5431L316.032 88.8569C318.768 86.1202 320.335 82.5725 320.335 78.58H304.335ZM304.718 77.5431C304.777 77.4845 304.965 77.322 305.286 77.1874C305.611 77.0514 305.889 77.02 306.035 77.02V93.02C309.887 93.02 313.354 91.5345 316.032 88.8568L304.718 77.5431ZM306.035 77.02H269.915V93.02H306.035V77.02ZM269.915 77.02C267.95 77.02 265.054 77.5819 262.777 80.0488C260.611 82.3946 260.235 85.152 260.235 86.84H276.235C276.235 87.3147 276.139 89.1621 274.533 90.9012C272.816 92.7614 270.76 93.02 269.915 93.02V77.02ZM260.235 86.84V105.46H276.235V86.84H260.235ZM260.235 105.46C260.235 107.071 260.554 109.771 262.581 112.136C264.81 114.737 267.772 115.42 269.915 115.42V99.42C270.938 99.42 273.06 99.776 274.729 101.724C276.196 103.435 276.235 105.156 276.235 105.46H260.235ZM269.915 115.42H300.995V99.42H269.915V115.42ZM300.995 115.42C301.052 115.42 300.893 115.427 300.618 115.318C300.329 115.205 300.098 115.037 299.958 114.897L311.272 103.583C308.419 100.73 304.778 99.42 300.995 99.42V115.42ZM299.958 114.897C299.858 114.797 299.693 114.588 299.568 114.281C299.446 113.98 299.435 113.762 299.435 113.72H315.435C315.435 109.904 314.041 106.352 311.272 103.583L299.958 114.897ZM299.435 113.72V117.64H315.435V113.72H299.435ZM299.435 117.64C299.435 117.595 299.447 117.422 299.537 117.193C299.627 116.965 299.733 116.837 299.753 116.816L311.477 127.704C314.056 124.926 315.435 121.445 315.435 117.64H299.435ZM299.958 116.603C300.098 116.463 300.329 116.295 300.618 116.182C300.893 116.073 301.052 116.08 300.995 116.08V132.08C304.778 132.08 308.419 130.77 311.272 127.917L299.958 116.603ZM300.995 116.08H269.915V132.08H300.995V116.08ZM269.915 116.08C268.122 116.08 265.308 116.534 262.998 118.843C260.689 121.153 260.235 123.967 260.235 125.76H276.235C276.235 126.433 276.061 128.407 274.312 130.157C272.562 131.906 270.588 132.08 269.915 132.08V116.08ZM260.235 125.76V144.66H276.235V125.76H260.235ZM260.235 144.66C260.235 146.348 260.611 149.105 262.777 151.451C265.054 153.918 267.95 154.48 269.915 154.48V138.48C270.76 138.48 272.816 138.739 274.533 140.599C276.139 142.338 276.235 144.185 276.235 144.66H260.235ZM269.915 154.48H306.035V138.48H269.915V154.48ZM306.035 154.48C305.889 154.48 305.611 154.449 305.286 154.313C304.965 154.178 304.777 154.015 304.718 153.957L316.032 142.643C313.354 139.965 309.887 138.48 306.035 138.48V154.48ZM304.931 154.162C304.814 154.053 304.623 153.825 304.48 153.489C304.342 153.163 304.335 152.936 304.335 152.92H320.335C320.335 148.946 318.84 145.243 315.819 142.438L304.931 154.162ZM304.335 152.92V156.56H320.335V152.92H304.335ZM397.689 153.76L404.549 157.876L404.549 157.876L397.689 153.76ZM345.469 160.48L341.353 167.34L341.402 167.369L341.452 167.398L345.469 160.48ZM338.749 153.76L331.889 157.876L331.889 157.876L338.749 153.76ZM338.049 135.84L343.706 141.497L338.049 135.84ZM350.929 135.84L345.067 141.284L345.268 141.501L345.485 141.702L350.929 135.84ZM353.449 145.92L347.202 150.918L347.757 151.612L348.451 152.167L353.449 145.92ZM382.989 145.92L388.646 151.577L388.959 151.264L389.236 150.918L382.989 145.92ZM382.149 129.82L379.34 137.311L379.592 137.405L379.85 137.483L382.149 129.82ZM348.549 117.22L351.358 109.729L351.275 109.698L351.192 109.669L348.549 117.22ZM339.589 110.36L346.187 105.836L346.187 105.836L339.589 110.36ZM338.749 77.6L345.609 81.716L345.609 81.716L338.749 77.6ZM345.469 70.88L341.452 63.9617L341.402 63.9905L341.353 64.02L345.469 70.88ZM397.689 77.6L390.829 81.716L390.829 81.716L397.689 77.6ZM398.249 95.24L392.805 89.3776L392.697 89.4784L392.592 89.5831L398.249 95.24ZM385.369 95.24L379.712 100.897L379.817 101.002L379.925 101.102L385.369 95.24ZM353.449 85.58L348.451 79.333L348.105 79.6098L347.792 79.9232L353.449 85.58ZM354.289 101.68L357.088 94.1855L356.841 94.0932L356.588 94.0174L354.289 101.68ZM388.029 114.28L385.23 121.774L385.278 121.792L385.326 121.81L388.029 114.28ZM396.849 121.14L403.447 116.616L403.447 116.616L396.849 121.14ZM392.209 144.52C392.209 146.474 391.741 148.125 390.829 149.644L404.549 157.876C406.997 153.795 408.209 149.286 408.209 144.52H392.209ZM390.829 149.644C389.825 151.318 388.527 152.616 386.853 153.62L395.085 167.34C399.011 164.984 402.193 161.802 404.549 157.876L390.829 149.644ZM386.853 153.62C385.334 154.532 383.683 155 381.729 155V171C386.495 171 391.004 169.788 395.085 167.34L386.853 153.62ZM381.729 155H354.849V171H381.729V155ZM354.849 155C352.894 155 351.154 154.53 349.486 153.562L341.452 167.398C345.571 169.79 350.084 171 354.849 171V155ZM349.585 153.62C347.911 152.616 346.613 151.318 345.609 149.644L331.889 157.876C334.245 161.802 337.427 164.984 341.353 167.34L349.585 153.62ZM345.609 149.644C344.697 148.125 344.229 146.474 344.229 144.52H328.229C328.229 149.286 329.441 153.795 331.889 157.876L345.609 149.644ZM344.229 144.52V140.32H328.229V144.52H344.229ZM344.229 140.32C344.229 140.362 344.218 140.58 344.096 140.881C343.971 141.188 343.806 141.397 343.706 141.497L332.392 130.183C329.623 132.952 328.229 136.504 328.229 140.32H344.229ZM343.706 141.497C343.709 141.494 343.579 141.62 343.308 141.735C343.032 141.852 342.79 141.88 342.669 141.88V125.88C338.677 125.88 335.129 127.447 332.392 130.183L343.706 141.497ZM342.669 141.88H346.589V125.88H342.669V141.88ZM346.589 141.88C346.361 141.88 346.013 141.829 345.641 141.661C345.281 141.498 345.096 141.315 345.067 141.284L356.791 130.396C354.169 127.572 350.642 125.88 346.589 125.88V141.88ZM345.485 141.702C345.411 141.633 345.223 141.426 345.07 141.077C344.916 140.726 344.889 140.439 344.889 140.32H360.889C360.889 136.308 359.299 132.695 356.373 129.978L345.485 141.702ZM344.889 140.32V144.52H360.889V140.32H344.889ZM344.889 144.52C344.889 147.261 346.017 149.436 347.202 150.918L359.696 140.922C360.134 141.47 360.889 142.713 360.889 144.52H344.889ZM348.451 152.167C349.933 153.352 352.108 154.48 354.849 154.48V138.48C356.656 138.48 357.899 139.235 358.447 139.673L348.451 152.167ZM354.849 154.48H381.729V138.48H354.849V154.48ZM381.729 154.48C384.603 154.48 386.987 153.236 388.646 151.577L377.332 140.263C377.738 139.858 378.335 139.39 379.145 139.03C379.974 138.661 380.861 138.48 381.729 138.48V154.48ZM389.236 150.918C390.421 149.436 391.549 147.261 391.549 144.52H375.549C375.549 142.713 376.304 141.47 376.742 140.922L389.236 150.918ZM391.549 144.52V131.78H375.549V144.52H391.549ZM391.549 131.78C391.549 130.065 391.151 127.889 389.709 125.87C388.239 123.812 386.24 122.695 384.448 122.157L379.85 137.483C378.992 137.225 377.693 136.575 376.689 135.17C375.714 133.805 375.549 132.469 375.549 131.78H391.549ZM384.958 122.329L351.358 109.729L345.74 124.711L379.34 137.311L384.958 122.329ZM351.192 109.669C349.068 108.926 347.466 107.701 346.187 105.836L332.991 114.884C336.193 119.553 340.564 122.901 345.906 124.771L351.192 109.669ZM346.187 105.836C344.85 103.886 344.229 101.867 344.229 99.58H328.229C328.229 105.133 329.848 110.3 332.991 114.884L346.187 105.836ZM344.229 99.58V86.98H328.229V99.58H344.229ZM344.229 86.98C344.229 84.8896 344.718 83.2001 345.609 81.716L331.889 73.484C329.42 77.5999 328.229 82.1637 328.229 86.98H344.229ZM345.609 81.716C346.613 80.042 347.911 78.7443 349.585 77.7399L341.353 64.02C337.427 66.3756 334.245 69.558 331.889 73.484L345.609 81.716ZM349.486 77.7983C351.154 76.83 352.894 76.36 354.849 76.36V60.36C350.084 60.36 345.571 61.57 341.452 63.9617L349.486 77.7983ZM354.849 76.36H381.729V60.36H354.849V76.36ZM381.729 76.36C383.683 76.36 385.334 76.8283 386.853 77.7399L395.085 64.02C391.004 61.5717 386.495 60.36 381.729 60.36V76.36ZM386.853 77.7399C388.527 78.7443 389.825 80.042 390.829 81.716L404.549 73.484C402.193 69.558 399.011 66.3756 395.085 64.02L386.853 77.7399ZM390.829 81.716C391.72 83.2001 392.209 84.8896 392.209 86.98H408.209C408.209 82.1637 407.019 77.5999 404.549 73.484L390.829 81.716ZM392.209 86.98V90.76H408.209V86.98H392.209ZM392.209 90.76C392.209 90.641 392.236 90.354 392.39 90.0034C392.543 89.6539 392.731 89.4469 392.805 89.3776L403.693 101.102C406.619 98.3848 408.209 94.7718 408.209 90.76H392.209ZM392.592 89.5831C392.692 89.4834 392.902 89.3178 393.208 89.1933C393.509 89.0709 393.727 89.06 393.769 89.06V105.06C397.585 105.06 401.137 103.666 403.906 100.897L392.592 89.5831ZM393.769 89.06H389.989V105.06H393.769V89.06ZM389.989 89.06C390.034 89.06 390.207 89.0716 390.436 89.1617C390.664 89.2516 390.792 89.3582 390.813 89.3777L379.925 101.102C382.703 103.681 386.184 105.06 389.989 105.06V89.06ZM391.026 89.5831C391.126 89.6828 391.291 89.8925 391.416 90.199C391.538 90.5002 391.549 90.7181 391.549 90.76H375.549C375.549 94.5757 376.943 98.128 379.712 100.897L391.026 89.5831ZM391.549 90.76V86.98H375.549V90.76H391.549ZM391.549 86.98C391.549 85.2347 391.156 82.4352 388.956 80.0664C386.653 77.5857 383.727 77.02 381.729 77.02V93.02C380.944 93.02 378.929 92.7809 377.232 90.9536C375.639 89.2381 375.549 87.4186 375.549 86.98H391.549ZM381.729 77.02H354.849V93.02H381.729V77.02ZM354.849 77.02C352.108 77.02 349.933 78.1481 348.451 79.333L358.447 91.8269C357.899 92.2652 356.656 93.02 354.849 93.02V77.02ZM347.792 79.9232C345.82 81.8948 344.889 84.4411 344.889 86.98H360.889C360.889 87.6017 360.782 88.3674 360.457 89.1811C360.128 90.0041 359.646 90.6968 359.106 91.2368L347.792 79.9232ZM344.889 86.98V99.58H360.889V86.98H344.889ZM344.889 99.58C344.889 101.206 345.226 103.348 346.583 105.383C348.009 107.522 350.037 108.757 351.99 109.343L356.588 94.0174C357.608 94.3233 358.936 95.0681 359.895 96.5074C360.785 97.8418 360.889 99.0737 360.889 99.58H344.889ZM351.49 109.174L385.23 121.774L390.828 106.786L357.088 94.1855L351.49 109.174ZM385.326 121.81C387.344 122.534 388.937 123.748 390.251 125.664L403.447 116.616C400.281 111.999 395.994 108.639 390.732 106.75L385.326 121.81ZM390.251 125.664C391.612 127.649 392.209 129.628 392.209 131.78H408.209C408.209 126.279 406.566 121.165 403.447 116.616L390.251 125.664ZM392.209 131.78V144.52H408.209V131.78H392.209ZM484.778 83.2L490.435 88.8568L490.539 88.7521L490.64 88.6436L484.778 83.2ZM461.678 161.18L467.335 166.837L467.335 166.837L461.678 161.18ZM448.938 161.18L443.075 166.624L443.277 166.841L443.494 167.042L448.938 161.18ZM425.838 83.2L419.975 88.6436L420.177 88.8607L420.394 89.0623L425.838 83.2ZM425.838 70.18L420.394 64.3176L420.286 64.4184L420.181 64.5231L425.838 70.18ZM478.598 78.58C478.598 78.5352 478.609 78.3616 478.7 78.1328C478.789 77.9048 478.896 77.7774 478.915 77.7564L490.64 88.6436C493.219 85.8663 494.598 82.385 494.598 78.58H478.598ZM479.121 77.5431C479.261 77.4029 479.492 77.2355 479.781 77.1217C480.056 77.0132 480.215 77.02 480.158 77.02V93.02C483.941 93.02 487.582 91.7098 490.435 88.8568L479.121 77.5431ZM480.158 77.02H465.458V93.02H480.158V77.02ZM465.458 77.02C463.618 77.02 460.769 77.4854 458.436 79.8181C456.103 82.1509 455.638 85.0002 455.638 86.84H471.638C471.638 87.4665 471.476 89.4057 469.75 91.1318C468.024 92.858 466.084 93.02 465.458 93.02V77.02ZM455.638 86.84V156.56H471.638V86.84H455.638ZM455.638 156.56C455.638 156.439 455.666 156.197 455.783 155.921C455.898 155.65 456.024 155.52 456.021 155.523L467.335 166.837C470.071 164.1 471.638 160.553 471.638 156.56H455.638ZM456.021 155.523C456.121 155.423 456.33 155.258 456.637 155.133C456.938 155.011 457.156 155 457.198 155V171C461.014 171 464.566 169.606 467.335 166.837L456.021 155.523ZM457.198 155H453.558V171H457.198V155ZM453.558 155C453.603 155 453.776 155.012 454.005 155.102C454.233 155.192 454.36 155.298 454.381 155.318L443.494 167.042C446.271 169.621 449.753 171 453.558 171V155ZM454.8 155.736C454.82 155.757 454.926 155.885 455.016 156.113C455.106 156.342 455.118 156.515 455.118 156.56H439.118C439.118 160.365 440.497 163.846 443.075 166.624L454.8 155.736ZM455.118 156.56V86.84H439.118V156.56H455.118ZM455.118 86.84C455.118 85.0002 454.652 82.1509 452.32 79.8181C449.987 77.4854 447.138 77.02 445.298 77.02V93.02C444.671 93.02 442.732 92.858 441.006 91.1318C439.28 89.4057 439.118 87.4665 439.118 86.84H455.118ZM445.298 77.02H430.458V93.02H445.298V77.02ZM430.458 77.02C430.503 77.02 430.676 77.0316 430.905 77.1217C431.133 77.2116 431.26 77.3182 431.281 77.3376L420.394 89.0623C423.171 91.6413 426.653 93.02 430.458 93.02V77.02ZM431.7 77.7564C431.72 77.7774 431.826 77.9048 431.916 78.1328C432.006 78.3616 432.018 78.5353 432.018 78.58H416.018C416.018 82.385 417.397 85.8663 419.975 88.6436L431.7 77.7564ZM432.018 78.58V74.8H416.018V78.58H432.018ZM432.018 74.8C432.018 74.7428 432.025 74.9017 431.916 75.1772C431.802 75.466 431.635 75.6966 431.495 75.8368L420.181 64.5231C417.328 67.376 416.018 71.017 416.018 74.8H432.018ZM431.281 76.0423C431.26 76.0618 431.133 76.1684 430.905 76.2583C430.676 76.3484 430.503 76.36 430.458 76.36V60.36C426.653 60.36 423.171 61.7387 420.394 64.3176L431.281 76.0423ZM430.458 76.36H480.158V60.36H430.458V76.36ZM480.158 76.36C480.215 76.36 480.056 76.3668 479.781 76.2583C479.492 76.1445 479.261 75.9771 479.121 75.8368L490.435 64.5231C487.582 61.6702 483.941 60.36 480.158 60.36V76.36ZM479.121 75.8368C478.981 75.6966 478.813 75.466 478.7 75.1772C478.591 74.9017 478.598 74.7428 478.598 74.8H494.598C494.598 71.017 493.288 67.376 490.435 64.5231L479.121 75.8368ZM478.598 74.8V78.58H494.598V74.8H478.598ZM572.049 153.76L578.909 157.876L578.909 157.876L572.049 153.76ZM519.829 160.48L515.713 167.34L515.762 167.369L515.812 167.398L519.829 160.48ZM513.109 153.76L506.249 157.876L506.249 157.876L513.109 153.76ZM513.109 77.6L519.969 81.716L519.969 81.716L513.109 77.6ZM519.829 70.88L515.812 63.9617L515.762 63.9905L515.713 64.02L519.829 70.88ZM572.049 77.6L565.189 81.716L565.189 81.716L572.049 77.6ZM527.809 85.58L522.812 79.333L522.466 79.6098L522.152 79.9232L527.809 85.58ZM527.809 145.92L521.562 150.918L522.118 151.612L522.812 152.167L527.809 145.92ZM557.349 145.92L563.006 151.577L563.319 151.264L563.596 150.918L557.349 145.92ZM566.569 144.52C566.569 146.474 566.101 148.125 565.189 149.644L578.909 157.876C581.358 153.795 582.569 149.286 582.569 144.52H566.569ZM565.189 149.644C564.185 151.318 562.887 152.616 561.213 153.62L569.445 167.34C573.371 164.984 576.554 161.802 578.909 157.876L565.189 149.644ZM561.213 153.62C559.694 154.532 558.043 155 556.089 155V171C560.855 171 565.365 169.788 569.445 167.34L561.213 153.62ZM556.089 155H529.209V171H556.089V155ZM529.209 155C527.254 155 525.514 154.53 523.846 153.562L515.812 167.398C519.931 169.79 524.445 171 529.209 171V155ZM523.945 153.62C522.271 152.616 520.974 151.318 519.969 149.644L506.249 157.876C508.605 161.802 511.787 164.984 515.713 167.34L523.945 153.62ZM519.969 149.644C519.058 148.125 518.589 146.474 518.589 144.52H502.589C502.589 149.286 503.801 153.795 506.249 157.876L519.969 149.644ZM518.589 144.52V86.98H502.589V144.52H518.589ZM518.589 86.98C518.589 84.8896 519.079 83.2001 519.969 81.716L506.249 73.484C503.78 77.5999 502.589 82.1637 502.589 86.98H518.589ZM519.969 81.716C520.974 80.042 522.271 78.7443 523.945 77.7399L515.713 64.02C511.787 66.3756 508.605 69.558 506.249 73.484L519.969 81.716ZM523.846 77.7983C525.514 76.83 527.254 76.36 529.209 76.36V60.36C524.445 60.36 519.931 61.57 515.812 63.9617L523.846 77.7983ZM529.209 76.36H556.089V60.36H529.209V76.36ZM556.089 76.36C558.043 76.36 559.694 76.8283 561.213 77.7399L569.445 64.02C565.365 61.5717 560.855 60.36 556.089 60.36V76.36ZM561.213 77.7399C562.887 78.7443 564.185 80.042 565.189 81.716L578.909 73.484C576.554 69.558 573.371 66.3756 569.445 64.02L561.213 77.7399ZM565.189 81.716C566.08 83.2001 566.569 84.8896 566.569 86.98H582.569C582.569 82.1637 581.379 77.5999 578.909 73.484L565.189 81.716ZM566.569 86.98V144.52H582.569V86.98H566.569ZM565.909 144.52V86.98H549.909V144.52H565.909ZM565.909 86.98C565.909 85.2347 565.516 82.4352 563.317 80.0664C561.013 77.5857 558.087 77.02 556.089 77.02V93.02C555.304 93.02 553.289 92.7809 551.592 90.9536C549.999 89.2381 549.909 87.4186 549.909 86.98H565.909ZM556.089 77.02H529.209V93.02H556.089V77.02ZM529.209 77.02C526.468 77.02 524.293 78.1481 522.812 79.333L532.807 91.8269C532.259 92.2652 531.017 93.02 529.209 93.02V77.02ZM522.152 79.9232C520.181 81.8948 519.249 84.4411 519.249 86.98H535.249C535.249 87.6017 535.143 88.3674 534.817 89.1811C534.488 90.0041 534.006 90.6968 533.466 91.2368L522.152 79.9232ZM519.249 86.98V144.52H535.249V86.98H519.249ZM519.249 144.52C519.249 147.261 520.377 149.436 521.562 150.918L534.056 140.922C534.494 141.47 535.249 142.713 535.249 144.52H519.249ZM522.812 152.167C524.293 153.352 526.468 154.48 529.209 154.48V138.48C531.017 138.48 532.259 139.235 532.807 139.673L522.812 152.167ZM529.209 154.48H556.089V138.48H529.209V154.48ZM556.089 154.48C558.963 154.48 561.347 153.236 563.006 151.577L551.692 140.263C552.098 139.858 552.695 139.39 553.505 139.03C554.334 138.661 555.221 138.48 556.089 138.48V154.48ZM563.596 150.918C564.781 149.436 565.909 147.261 565.909 144.52H549.909C549.909 142.713 550.664 141.47 551.102 140.922L563.596 150.918ZM661.938 154.18L654.547 157.241L654.574 157.306L654.601 157.37L661.938 154.18ZM661.518 160.06L668.028 164.71L668.075 164.644L668.12 164.577L661.518 160.06ZM648.358 161.88L643.92 168.536L644.041 168.617L644.165 168.693L648.358 161.88ZM645.978 159.08L653.363 156.003L653.36 155.996L645.978 159.08ZM632.818 127.58L625.433 130.657L625.436 130.664L632.818 127.58ZM613.498 161.18L607.841 155.523L607.841 155.523L613.498 161.18ZM600.618 161.18L594.544 166.386L594.744 166.62L594.961 166.837L600.618 161.18ZM600.618 70.18L594.961 64.5231L594.848 64.6362L594.74 64.7538L600.618 70.18ZM658.998 77.6L652.138 81.716L652.138 81.716L658.998 77.6ZM658.578 117.36L651.89 112.971L651.872 112.997L651.856 113.023L658.578 117.36ZM651.158 124.08L653.098 131.841L653.998 131.616L654.822 131.192L651.158 124.08ZM650.318 125.06L657.746 128.031L657.833 127.813L657.907 127.59L650.318 125.06ZM650.458 126.46L657.849 123.399L657.623 122.852L657.318 122.344L650.458 126.46ZM654.601 157.37C654.652 157.485 654.515 157.221 654.553 156.69C654.594 156.125 654.798 155.714 654.916 155.543L668.12 164.577C671.047 160.3 671.188 155.391 669.275 150.99L654.601 157.37ZM655.008 155.41C654.872 155.6 654.932 155.449 655.268 155.263C655.431 155.173 655.612 155.101 655.798 155.055C655.981 155.009 656.121 155 656.198 155V171C661.273 171 665.338 168.475 668.028 164.71L655.008 155.41ZM656.198 155H651.998V171H656.198V155ZM651.998 155C652.225 155 652.411 155.037 652.531 155.074C652.643 155.108 652.651 155.128 652.551 155.067L644.165 168.693C646.417 170.079 649.063 171 651.998 171V155ZM652.796 155.224C652.794 155.222 652.889 155.286 653.018 155.439C653.153 155.597 653.275 155.792 653.363 156.003L638.593 162.157C639.733 164.892 641.636 167.013 643.92 168.536L652.796 155.224ZM653.36 155.996L640.2 124.496L625.436 130.664L638.596 162.164L653.36 155.996ZM640.203 124.503C639.486 122.784 638.255 120.983 636.276 119.664C634.296 118.344 632.161 117.9 630.298 117.9V133.9C629.649 133.9 628.54 133.736 627.4 132.976C626.261 132.217 625.683 131.256 625.433 130.657L640.203 124.503ZM630.298 117.9H617.278V133.9H630.298V117.9ZM617.278 117.9C615.438 117.9 612.589 118.365 610.256 120.698C607.923 123.031 607.458 125.88 607.458 127.72H623.458C623.458 128.346 623.296 130.286 621.57 132.012C619.844 133.738 617.904 133.9 617.278 133.9V117.9ZM607.458 127.72V156.56H623.458V127.72H607.458ZM607.458 156.56C607.458 156.439 607.486 156.197 607.603 155.921C607.718 155.65 607.844 155.52 607.841 155.523L619.155 166.837C621.891 164.1 623.458 160.553 623.458 156.56H607.458ZM607.841 155.523C607.941 155.423 608.15 155.258 608.457 155.133C608.758 155.011 608.976 155 609.018 155V171C612.834 171 616.386 169.606 619.155 166.837L607.841 155.523ZM609.018 155H605.098V171H609.018V155ZM605.098 155C605.14 155 605.358 155.011 605.659 155.133C605.965 155.258 606.175 155.423 606.275 155.523L594.961 166.837C597.73 169.606 601.282 171 605.098 171V155ZM606.692 155.974C606.726 156.014 606.811 156.132 606.876 156.311C606.94 156.487 606.938 156.591 606.938 156.56H590.938C590.938 160.18 592.14 163.582 594.544 166.386L606.692 155.974ZM606.938 156.56V74.8H590.938V156.56H606.938ZM606.938 74.8C606.938 74.6709 606.956 74.7598 606.876 74.9789C606.791 75.2141 606.651 75.4393 606.496 75.6062L594.74 64.7538C592.075 67.6401 590.938 71.2047 590.938 74.8H606.938ZM606.275 75.8368C606.175 75.9366 605.965 76.1022 605.659 76.2267C605.358 76.3491 605.14 76.36 605.098 76.36V60.36C601.282 60.36 597.73 61.7543 594.961 64.5231L606.275 75.8368ZM605.098 76.36H643.038V60.36H605.098V76.36ZM643.038 76.36C644.992 76.36 646.643 76.8283 648.162 77.7399L656.394 64.02C652.313 61.5717 647.804 60.36 643.038 60.36V76.36ZM648.162 77.7399C649.836 78.7443 651.134 80.042 652.138 81.716L665.858 73.484C663.502 69.558 660.32 66.3756 656.394 64.02L648.162 77.7399ZM652.138 81.716C653.029 83.2001 653.518 84.8896 653.518 86.98H669.518C669.518 82.1637 668.327 77.5999 665.858 73.484L652.138 81.716ZM653.518 86.98V107.42H669.518V86.98H653.518ZM653.518 107.42C653.518 109.532 652.977 111.314 651.89 112.971L665.266 121.749C668.099 117.433 669.518 112.588 669.518 107.42H653.518ZM651.856 113.023C650.753 114.732 649.338 116.019 647.494 116.968L654.822 131.192C659.138 128.968 662.67 125.775 665.3 121.697L651.856 113.023ZM649.218 116.319C644.977 117.379 643.292 120.841 642.729 122.53L657.907 127.59C657.718 128.159 656.592 130.968 653.098 131.841L649.218 116.319ZM642.89 122.089C641.69 125.09 642.155 128.171 643.598 130.576L657.318 122.344C657.688 122.961 658.062 123.849 658.173 124.964C658.287 126.102 658.095 127.158 657.746 128.031L642.89 122.089ZM643.067 129.521L654.547 157.241L669.329 151.119L657.849 123.399L643.067 129.521ZM652.858 107.42V86.98H636.858V107.42H652.858ZM652.858 86.98C652.858 85.2347 652.465 82.4352 650.265 80.0664C647.962 77.5857 645.036 77.02 643.038 77.02V93.02C642.253 93.02 640.237 92.7809 638.541 90.9536C636.948 89.2381 636.858 87.4186 636.858 86.98H652.858ZM643.038 77.02H617.278V93.02H643.038V77.02ZM617.278 77.02C615.438 77.02 612.589 77.4854 610.256 79.8181C607.923 82.1509 607.458 85.0002 607.458 86.84H623.458C623.458 87.4665 623.296 89.4057 621.57 91.1318C619.844 92.858 617.904 93.02 617.278 93.02V77.02ZM607.458 86.84V107.42H623.458V86.84H607.458ZM607.458 107.42C607.458 109.26 607.923 112.109 610.256 114.442C612.589 116.775 615.438 117.24 617.278 117.24V101.24C617.904 101.24 619.844 101.402 621.57 103.128C623.296 104.854 623.458 106.794 623.458 107.42H607.458ZM617.278 117.24H643.038V101.24H617.278V117.24ZM643.038 117.24C644.878 117.24 647.727 116.775 650.06 114.442C652.393 112.109 652.858 109.26 652.858 107.42H636.858C636.858 106.794 637.02 104.854 638.746 103.128C640.472 101.402 642.411 101.24 643.038 101.24V117.24ZM757.987 71.58L765.079 67.8795L765.017 67.7604L764.951 67.6435L757.987 71.58ZM757.847 78.16L764.661 82.3515L764.776 82.1639L764.881 81.9703L757.847 78.16ZM731.667 120.72L737.914 125.718L738.222 125.332L738.481 124.912L731.667 120.72ZM729.147 161.18L723.49 155.523L723.49 155.523L729.147 161.18ZM716.127 161.18L710.264 166.624L710.466 166.841L710.683 167.042L716.127 161.18ZM713.607 120.72L706.783 124.895L707.278 125.705L707.95 126.377L713.607 120.72ZM687.567 78.16L680.469 81.8508L680.597 82.0978L680.743 82.3352L687.567 78.16ZM687.427 71.72L694.373 75.6891L694.418 75.6102L694.461 75.5303L687.427 71.72ZM703.107 71.44L696.219 75.5098L696.302 75.6496L696.39 75.786L703.107 71.44ZM714.587 90.34L707.768 94.5241L707.79 94.5592L707.812 94.5941L714.587 90.34ZM721.727 101.82L728.882 98.2423L728.725 97.9272L728.54 97.6272L721.727 101.82ZM723.687 101.82L730.087 106.62L730.31 106.322L730.505 106.004L723.687 101.82ZM731.107 89.78L737.909 93.9908L737.931 93.9552L737.953 93.9194L731.107 89.78ZM737.687 79L730.914 74.7426L730.897 74.7693L730.88 74.796L737.687 79ZM742.307 71.44L735.419 67.3702L735.401 67.4008L735.383 67.4317L742.307 71.44ZM750.894 75.2805C750.904 75.2993 750.873 75.2437 750.842 75.1194C750.81 74.9913 750.79 74.8339 750.794 74.6648C750.801 74.2979 750.911 74.1683 750.812 74.3497L764.881 81.9703C767.282 77.5372 767.504 72.5266 765.079 67.8795L750.894 75.2805ZM751.033 73.9685L724.853 116.528L738.481 124.912L764.661 82.3515L751.033 73.9685ZM725.42 115.722C723.276 118.402 723.107 121.544 723.107 123.1H739.107C739.107 122.945 739.123 123.117 739.034 123.497C738.949 123.859 738.688 124.75 737.914 125.718L725.42 115.722ZM723.107 123.1V156.56H739.107V123.1H723.107ZM723.107 156.56C723.107 156.439 723.135 156.197 723.252 155.921C723.367 155.65 723.493 155.52 723.49 155.523L734.804 166.837C737.54 164.1 739.107 160.553 739.107 156.56H723.107ZM723.49 155.523C723.59 155.423 723.799 155.258 724.106 155.133C724.407 155.011 724.625 155 724.667 155V171C728.482 171 732.035 169.606 734.804 166.837L723.49 155.523ZM724.667 155H720.747V171H724.667V155ZM720.747 155C720.791 155 720.965 155.012 721.194 155.102C721.422 155.192 721.549 155.298 721.57 155.318L710.683 167.042C713.46 169.621 716.942 171 720.747 171V155ZM721.989 155.736C722.009 155.757 722.115 155.885 722.205 156.113C722.295 156.342 722.307 156.515 722.307 156.56H706.307C706.307 160.365 707.685 163.846 710.264 166.624L721.989 155.736ZM722.307 156.56V122.96H706.307V156.56H722.307ZM722.307 122.96C722.307 120.96 721.883 117.683 719.264 115.063L707.95 126.377C707.114 125.541 706.694 124.649 706.496 124.016C706.309 123.419 706.307 123.018 706.307 122.96H722.307ZM720.431 116.545L694.391 73.9848L680.743 82.3352L706.783 124.895L720.431 116.545ZM694.664 74.4692C694.498 74.1501 694.611 74.2289 694.62 74.6261C694.624 74.8214 694.601 75.036 694.545 75.248C694.491 75.4573 694.42 75.6069 694.373 75.6891L680.481 67.7509C677.77 72.4939 678.243 77.5692 680.469 81.8508L694.664 74.4692ZM694.461 75.5303C694.503 75.453 694.343 75.7657 693.853 76.0599C693.358 76.3569 692.985 76.36 693.027 76.36V60.36C690.549 60.36 687.982 60.9231 685.621 62.3401C683.264 63.7543 681.564 65.747 680.392 67.9097L694.461 75.5303ZM693.027 76.36H697.507V60.36H693.027V76.36ZM697.507 76.36C697.666 76.36 697.388 76.3854 696.941 76.1397C696.732 76.0246 696.554 75.886 696.417 75.7493C696.284 75.6165 696.226 75.5207 696.219 75.5098L709.994 67.3702C707.245 62.7173 702.66 60.36 697.507 60.36V76.36ZM696.39 75.786C697.33 77.2378 698.805 79.6483 700.85 83.0886L714.603 74.9114C712.542 71.4451 710.937 68.8155 709.823 67.094L696.39 75.786ZM700.85 83.0886C702.926 86.5794 705.232 90.3918 707.768 94.5241L721.405 86.1559C718.901 82.0749 716.634 78.3272 714.603 74.9114L700.85 83.0886ZM707.812 94.5941C710.32 98.5892 712.687 102.395 714.913 106.013L728.54 97.6272C726.286 93.9646 723.893 90.1174 721.362 86.0858L707.812 94.5941ZM714.571 105.398C715.139 106.533 716.093 107.866 717.639 108.896C719.235 109.96 720.98 110.38 722.567 110.38V94.38C723.78 94.38 725.198 94.7063 726.514 95.5836C727.78 96.4275 728.501 97.4799 728.882 98.2423L714.571 105.398ZM722.567 110.38C725.551 110.38 728.296 109.008 730.087 106.62L717.287 97.02C717.803 96.3316 718.569 95.6093 719.619 95.0846C720.669 94.5598 721.706 94.38 722.567 94.38V110.38ZM730.505 106.004C733.02 101.906 735.488 97.9016 737.909 93.9908L724.305 85.5692C721.872 89.4984 719.393 93.5207 716.868 97.6359L730.505 106.004ZM737.953 93.9194C740.369 89.9224 742.549 86.3512 744.493 83.2039L730.88 74.796C728.904 77.9955 726.697 81.6109 724.261 85.6406L737.953 93.9194ZM744.46 83.2574C746.528 79.9666 748.13 77.3491 749.23 75.4483L735.383 67.4317C734.43 69.0776 732.952 71.5001 730.914 74.7426L744.46 83.2574ZM749.194 75.5098C749.2 75.5003 749.153 75.5817 749.03 75.706C748.904 75.8344 748.729 75.9753 748.512 76.0978C748.042 76.3633 747.706 76.36 747.767 76.36V60.36C742.572 60.36 738.103 62.8291 735.419 67.3702L749.194 75.5098ZM747.767 76.36H752.247V60.36H747.767V76.36ZM752.247 76.36C752.445 76.36 752.176 76.3937 751.728 76.1421C751.518 76.0243 751.34 75.8826 751.206 75.7443C751.142 75.6785 751.096 75.6218 751.065 75.5804C751.035 75.5394 751.022 75.5159 751.022 75.5165L764.951 67.6435C762.217 62.8064 757.532 60.36 752.247 60.36V76.36Z" fill="black" mask="url(#path-1-outside-1_107_88)"/>
</svg>
