{
    "asset" : {
        "generator" : "Khronos glTF Blender I/O v1.7.33",
        "version" : "2.0"
    },
    "scene" : 0,
    "scenes" : [
        {
            "name" : "Scene",
            "nodes" : [
                0
            ]
        }
    ],
    "nodes" : [
        {
            "mesh" : 0,
            "name" : "Environment_House3"
        }
    ],
    "materials" : [
        {
            "doubleSided" : true,
            "name" : "Atlas",
            "pbrMetallicRoughness" : {
                "baseColorTexture" : {
                    "index" : 0
                },
                "metallicFactor" : 0
            }
        },
        {
            "doubleSided" : true,
            "emissiveFactor" : [
                1,
                1,
                1
            ],
            "name" : "Window",
            "pbrMetallicRoughness" : {}
        }
    ],
    "meshes" : [
        {
            "name" : "Cube.353",
            "primitives" : [
                {
                    "attributes" : {
                        "POSITION" : 0,
                        "NORMAL" : 1,
                        "TEXCOORD_0" : 2,
                        "COLOR_0" : 3
                    },
                    "indices" : 4,
                    "material" : 0
                },
                {
                    "attributes" : {
                        "POSITION" : 5,
                        "NORMAL" : 6,
                        "TEXCOORD_0" : 7,
                        "COLOR_0" : 8
                    },
                    "indices" : 9,
                    "material" : 1
                }
            ]
        }
    ],
    "textures" : [
        {
            "sampler" : 0,
            "source" : 0
        }
    ],
    "images" : [
        {
            "bufferView" : 5,
            "mimeType" : "image/png",
            "name" : "Atlas_Pirate"
        }
    ],
    "accessors" : [
        {
            "bufferView" : 0,
            "componentType" : 5126,
            "count" : 13402,
            "max" : [
                4.228280067443848,
                10.642902374267578,
                1.8889234066009521
            ],
            "min" : [
                -4.228280067443848,
                0.00016744964523240924,
                -1.8889234066009521
            ],
            "type" : "VEC3"
        },
        {
            "bufferView" : 1,
            "componentType" : 5126,
            "count" : 13402,
            "type" : "VEC3"
        },
        {
            "bufferView" : 2,
            "componentType" : 5126,
            "count" : 13402,
            "type" : "VEC2"
        },
        {
            "bufferView" : 3,
            "componentType" : 5123,
            "count" : 13402,
            "normalized" : true,
            "type" : "VEC4"
        },
        {
            "bufferView" : 4,
            "componentType" : 5123,
            "count" : 27492,
            "type" : "SCALAR"
        },
        {
            "bufferView" : 6,
            "componentType" : 5126,
            "count" : 12,
            "max" : [
                2.9174389839172363,
                3.209507942199707,
                0.3274160921573639
            ],
            "min" : [
                -2.9174389839172363,
                2.64569354057312,
                -0.2874416708946228
            ],
            "type" : "VEC3"
        },
        {
            "bufferView" : 7,
            "componentType" : 5126,
            "count" : 12,
            "type" : "VEC3"
        },
        {
            "bufferView" : 8,
            "componentType" : 5126,
            "count" : 12,
            "type" : "VEC2"
        },
        {
            "bufferView" : 9,
            "componentType" : 5123,
            "count" : 12,
            "normalized" : true,
            "type" : "VEC4"
        },
        {
            "bufferView" : 10,
            "componentType" : 5123,
            "count" : 24,
            "type" : "SCALAR"
        }
    ],
    "bufferViews" : [
        {
            "buffer" : 0,
            "byteLength" : 160824,
            "byteOffset" : 0
        },
        {
            "buffer" : 0,
            "byteLength" : 160824,
            "byteOffset" : 160824
        },
        {
            "buffer" : 0,
            "byteLength" : 107216,
            "byteOffset" : 321648
        },
        {
            "buffer" : 0,
            "byteLength" : 107216,
            "byteOffset" : 428864
        },
        {
            "buffer" : 0,
            "byteLength" : 54984,
            "byteOffset" : 536080
        },
        {
            "buffer" : 0,
            "byteLength" : 3207,
            "byteOffset" : 591064
        },
        {
            "buffer" : 0,
            "byteLength" : 144,
            "byteOffset" : 594272
        },
        {
            "buffer" : 0,
            "byteLength" : 144,
            "byteOffset" : 594416
        },
        {
            "buffer" : 0,
            "byteLength" : 96,
            "byteOffset" : 594560
        },
        {
            "buffer" : 0,
            "byteLength" : 96,
            "byteOffset" : 594656
        },
        {
            "buffer" : 0,
            "byteLength" : 48,
            "byteOffset" : 594752
        }
    ],
    "samplers" : [
        {
            "magFilter" : 9729,
            "minFilter" : 9987
        }
    ],
    "buffers" : [
        {
            "byteLength" : 594800,
            "uri" : "data:application/octet-stream;base64,"
        }
    ]
}
